<?xml version="1.0" encoding="utf-8"?>
<!-- Generator: Adobe Illustrator 24.1.0, SVG Export Plug-In . SVG Version: 6.00 Build 0)  -->
<svg version="1.1" id="Layer_1" xmlns="http://www.w3.org/2000/svg" xmlns:xlink="http://www.w3.org/1999/xlink" x="0px" y="0px"
	 viewBox="0 0 800 711" style="enable-background:new 0 0 800 711;" xml:space="preserve">
<style type="text/css">
	.st0{fill:#FFFFFF;}
</style>
<g>
	<path class="st0" d="M474.7,670.6L161,542.4c-40-16.3-72.9-43.5-95.2-78.6C45,431.2,34.1,393,34.1,353.5c0-39.6,11-77.7,31.7-110.4
		C88.1,208,121,180.8,161,164.5L474.7,36.3c20-8.2,40.6-13.1,61.6-14.7l31.4,0c21.1,1.6,41.8,6.6,61.7,14.8
		c24.3,10,46.1,24.4,65,42.7c39.7,38.6,61.6,90.5,61.6,146.2v256.4c0,55.7-21.9,107.6-61.6,146.2c-18.9,18.3-40.7,32.7-65,42.7
		C604.6,680.8,578.6,686,552,686C525.6,686,499.6,680.8,474.7,670.6z M567.7,108.2C619.5,115.6,670,159,670,225.3v256.4
		c0,73.1-61.2,118.3-117.9,118.3c-15.2,0-30.3-3-44.8-9L193.5,462.8c-28.7-11.7-50.2-31.9-62.3-58.4c-9.7-21.1-11.1-41-11.1-50.9
		c0-9.9,1.4-29.8,11.1-50.9c12.1-26.5,33.7-46.7,62.3-58.4L507.2,116c9.5-3.9,19.2-6.5,29.1-7.9v-55c-16.9,1.6-33.6,5.7-49.7,12.3
		L172.9,193.6c-66.2,27.1-107.4,88.3-107.4,159.9c0,71.5,41.1,132.8,107.4,159.9l313.7,128.2c21.1,8.6,43.2,13,65.5,13
		c44.3,0,88.3-18,120.5-49.3c33.6-32.6,52-76.5,52-123.6V225.3c0-47.1-18.5-91-52.1-123.6c-28.4-27.6-65.9-44.8-104.8-48.5
		L567.7,108.2z M552,138.4c-11.1,0-22.1,2.2-32.9,6.6L205.4,273.3c-21.4,8.8-36.8,23-45.6,42.4c-7.5,16.3-8.3,31.9-8.3,37.8
		c0,6,0.8,21.6,8.3,37.8c8.9,19.4,24.2,33.6,45.6,42.4l313.7,128.2c10.8,4.4,21.8,6.6,32.9,6.6c41.6,0,86.5-33.2,86.5-86.9V225.3
		C638.5,171.7,593.6,138.4,552,138.4L552,138.4z"/>
</g>
<g>
	<circle class="st0" cx="310.6" cy="346.8" r="32"/>
	<path class="st0" d="M310.6,271.7c-41.5,0-75.1,33.6-75.1,75.1s33.6,75.1,75.1,75.1s75.1-33.6,75.1-75.1S352,271.7,310.6,271.7
		L310.6,271.7z"/>
</g>
</svg>
