<?xml version="1.0" encoding="utf-8"?>
<!-- Generator: Adobe Illustrator 24.1.0, SVG Export Plug-In . SVG Version: 6.00 Build 0)  -->
<svg version="1.1" id="Layer_1" xmlns="http://www.w3.org/2000/svg" xmlns:xlink="http://www.w3.org/1999/xlink" x="0px" y="0px"
	 viewBox="0 0 631 711" style="enable-background:new 0 0 631 711;" xml:space="preserve">
<style type="text/css">
	.st0{fill:#FFFFFF;}
	.st1{fill:#FFFFFF;stroke:#FFFFFF;stroke-width:14.0659;stroke-miterlimit:10;}
</style>
<g>
	<path class="st0" d="M386.5,694.8H237c-113.7,0-206.3-92.5-206.3-206.3V226.4c0-113.7,92.5-206.3,206.3-206.3h149.6
		c113.7,0,206.3,92.5,206.3,206.3v262.1C592.8,602.3,500.3,694.8,386.5,694.8z M237,47.8c-98.5,0-178.6,80.1-178.6,178.6v262.1
		c0,98.5,80.1,178.6,178.6,178.6h149.6c98.5,0,178.6-80.1,178.6-178.6V226.4c0-98.5-80.1-178.6-178.6-178.6H237z M386.5,610.4H237
		c-67.2,0-121.9-54.7-121.9-121.9V226.4c0-67.2,54.7-121.9,121.9-121.9h149.6c67.2,0,121.9,54.7,121.9,121.9v262.1
		C508.4,555.8,453.8,610.4,386.5,610.4z M237,132.2c-52,0-94.2,42.3-94.2,94.2v262.1c0,52,42.3,94.2,94.2,94.2h149.6
		c52,0,94.2-42.3,94.2-94.2V226.4c0-52-42.3-94.2-94.2-94.2H237z"/>
</g>
<g>
	<circle class="st1" cx="358" cy="463.5" r="28.4"/>
	<path class="st1" d="M358,396.8c36.8,0,66.6,29.8,66.6,66.6s-29.8,66.6-66.6,66.6c-36.8,0-66.6-29.8-66.6-66.6
		S321.2,396.8,358,396.8L358,396.8z"/>
</g>
<g>
	<rect x="344" y="35.9" class="st0" width="27.6" height="82.9"/>
</g>
<g>
	<rect x="344" y="598.1" class="st0" width="27.6" height="82.9"/>
</g>
</svg>
