<?xml version="1.0" encoding="utf-8"?>
<!-- Generator: Adobe Illustrator 24.1.0, SVG Export Plug-In . SVG Version: 6.00 Build 0)  -->
<svg version="1.1" id="Layer_1" xmlns="http://www.w3.org/2000/svg" xmlns:xlink="http://www.w3.org/1999/xlink" x="0px" y="0px"
	 viewBox="0 0 800 711" style="enable-background:new 0 0 800 711;" xml:space="preserve">
<style type="text/css">
	.st0{fill:#FFFFFF;}
	.st1{fill:#FDFEFF;}
</style>
<g id="next">
	<g>
		<path class="st0" d="M47.3,279.7C34.8,307,33,332.7,33,345.5c0,12.8,1.8,38.5,14.3,65.8c15.6,34.2,43.5,60.3,80.5,75.5
			l405.5,165.6c18.9,7.6,38.2,11.6,57.9,11.6c73.3,0,152.3-58.4,152.3-152.9V179.8c0-85.7-65.3-141.7-132.1-151.3
			c-41.9-3.1-66,5-78.3,10.1L127.8,204.3C90.8,219.4,63,245.5,47.3,279.7z M73.7,345.5c0-7.8,1-27.9,10.7-48.8
			c11.5-25.1,31.3-43.4,58.9-54.8L548.6,76.2c14-5.7,28.3-8.7,42.6-8.7c53.8,0,111.8,42.9,111.8,112.2V511
			c0,69.3-58,112.3-111.8,112.3c-14.3,0-28.7-2.8-42.5-8.5L143.3,449.1c-27.7-11.4-47.5-29.7-58.9-54.8
			C74.7,373.3,73.7,353.1,73.7,345.5z"/>
	</g>
</g>
<g id="eye">
	<g>
		<g>
			<path class="st1" d="M326.4,454.4c-62,0-112.5-50.5-112.5-112.5s50.5-112.5,112.5-112.5S439,279.8,439,341.8
				C439,403.9,388.6,454.4,326.4,454.4z M326.4,260.3c-45,0-81.5,36.6-81.5,81.5s36.6,81.5,81.5,81.5s81.5-36.6,81.5-81.5
				C408,296.9,371.4,260.3,326.4,260.3z"/>
		</g>
		<path class="st1" d="M353.3,336.8c-11.8,0-21.3-9.6-21.3-21.3c0-5.2,1.8-9.9,4.9-13.7c-3.4-0.9-7-1.4-10.6-1.4
			c-22.7,0-41.3,18.5-41.3,41.3c0,22.7,18.5,41.3,41.3,41.3c22.7,0,41.3-18.6,41.3-41.3c0-3.4-0.4-6.6-1.2-9.6
			C363,335.1,358.3,336.8,353.3,336.8z"/>
	</g>
</g>
</svg>
