<?xml version="1.0" encoding="utf-8"?>
<!-- Generator: Adobe Illustrator 24.1.0, SVG Export Plug-In . SVG Version: 6.00 Build 0)  -->
<svg version="1.1" id="Layer_1" xmlns="http://www.w3.org/2000/svg" xmlns:xlink="http://www.w3.org/1999/xlink" x="0px" y="0px"
	 viewBox="0 0 599 537.1" style="enable-background:new 0 0 599 537.1;" xml:space="preserve">
<style type="text/css">
	.st0{fill:#231F20;}
</style>
<g>
	<g>
		<path d="M384.2,303.2c-17.7,0-32-14.4-32-32c0-17.7,14.4-32,32-32c17.7,0,32,14.4,32,32S401.8,303.2,384.2,303.2z"/>
	</g>
	<g>
		<path class="st0" d="M384.2,358.3c-48,0-87.1-39.1-87.1-87.1c0-48,39.1-87.1,87.1-87.1s87.1,39.1,87.1,87.1
			C471.3,319.2,432.3,358.3,384.2,358.3z M384.2,208.1c-34.8,0-63.1,28.3-63.1,63.1c0,34.8,28.3,63.1,63.1,63.1s63.1-28.3,63.1-63.1
			C447.3,236.4,419,208.1,384.2,208.1z"/>
	</g>
</g>
<g>
	<path class="st0" d="M501.3,162.6L187.6,34.4c-9.5-3.9-28.2-10.2-60.6-7.8C75.3,34,24.8,77.4,24.8,143.7v256.4
		c0,73.1,61.2,118.3,117.9,118.3c15.2,0,30.2-3.1,44.8-9l313.8-128.2c28.6-11.7,50.2-31.9,62.3-58.4c9.7-21.1,11.1-41,11.1-50.9
		c0-9.9-1.4-29.8-11.1-50.9C551.5,194.5,530,174.3,501.3,162.6z M534.9,309.7c-8.8,19.4-24.2,33.6-45.6,42.4L175.6,480.3
		c-10.7,4.4-21.8,6.6-32.9,6.6c-41.6,0-86.5-33.3-86.5-86.9V143.6c0-53.6,44.9-86.8,86.5-86.8c11.1,0,22.2,2.3,33,6.7l313.6,128.2
		c21.4,8.8,36.7,23,45.6,42.4c7.5,16.2,8.3,31.8,8.3,37.8C543.2,277.8,542.4,293.4,534.9,309.7z"/>
</g>
</svg>
