<?xml version="1.0" encoding="utf-8"?>
<!-- Generator: Adobe Illustrator 24.1.0, SVG Export Plug-In . SVG Version: 6.00 Build 0)  -->
<svg version="1.1" id="Layer_1" xmlns="http://www.w3.org/2000/svg" xmlns:xlink="http://www.w3.org/1999/xlink" x="0px" y="0px"
	 viewBox="0 0 800 247" style="enable-background:new 0 0 800 247;" xml:space="preserve">
<style type="text/css">
	.st0{fill:#2B373D;}
</style>
<g>
	<g id="eye">
		<g>
			<g>
				<path class="st0" d="M639.9,236c-62,0-112.5-50.5-112.5-112.5S577.9,10.9,639.9,10.9s112.5,50.5,112.5,112.5
					C752.4,185.5,702.1,236,639.9,236z M639.9,41.9c-45,0-81.5,36.6-81.5,81.5s36.6,81.5,81.5,81.5c45,0,81.5-36.6,81.5-81.5
					C721.4,78.5,684.9,41.9,639.9,41.9z"/>
			</g>
			<path class="st0" d="M666.8,118.4c-11.8,0-21.3-9.6-21.3-21.3c0-5.2,1.8-9.9,4.9-13.7c-3.4-0.9-7-1.4-10.6-1.4
				c-22.7,0-41.3,18.5-41.3,41.3c0,22.7,18.5,41.3,41.3,41.3c22.7,0,41.3-18.6,41.3-41.3c0-3.4-0.4-6.6-1.2-9.6
				C676.5,116.7,671.8,118.4,666.8,118.4z"/>
		</g>
	</g>
	<g>
		<g id="eye_1_">
			<g>
				<g>
					<path class="st0" d="M397,236c-62,0-112.5-50.5-112.5-112.5S335,10.9,397,10.9s112.5,50.5,112.5,112.5
						C509.5,185.5,459.2,236,397,236z M397,41.9c-45,0-81.5,36.6-81.5,81.5S352,205,397,205s81.5-36.6,81.5-81.5
						C478.5,78.5,442,41.9,397,41.9z"/>
				</g>
				<path class="st0" d="M423.9,118.4c-11.8,0-21.3-9.6-21.3-21.3c0-5.2,1.8-9.9,4.9-13.7c-3.4-0.9-7-1.4-10.6-1.4
					c-22.7,0-41.3,18.5-41.3,41.3c0,22.7,18.5,41.3,41.3,41.3c22.7,0,41.3-18.6,41.3-41.3c0-3.4-0.4-6.6-1.2-9.6
					C433.6,116.7,428.9,118.4,423.9,118.4z"/>
			</g>
		</g>
	</g>
	<g>
		<g id="eye_2_">
			<g>
				<g>
					<path class="st0" d="M150,236c-62,0-112.5-50.5-112.5-112.5S88,10.9,150,10.9s112.5,50.5,112.5,112.5
						C262.5,185.5,212.2,236,150,236z M150,41.9c-45,0-81.5,36.6-81.5,81.5S105,205,150,205s81.5-36.6,81.5-81.5
						C231.5,78.5,195,41.9,150,41.9z"/>
				</g>
				<path class="st0" d="M176.9,118.4c-11.8,0-21.3-9.6-21.3-21.3c0-5.2,1.8-9.9,4.9-13.7c-3.4-0.9-7-1.4-10.6-1.4
					c-22.7,0-41.3,18.5-41.3,41.3c0,22.7,18.5,41.3,41.3,41.3c22.7,0,41.3-18.6,41.3-41.3c0-3.4-0.4-6.6-1.2-9.6
					C186.6,116.7,181.9,118.4,176.9,118.4z"/>
			</g>
		</g>
	</g>
</g>
</svg>
