<?xml version="1.0" encoding="utf-8"?>
<!-- Generator: Adobe Illustrator 24.1.0, SVG Export Plug-In . SVG Version: 6.00 Build 0)  -->
<svg version="1.1" id="Layer_1" xmlns="http://www.w3.org/2000/svg" xmlns:xlink="http://www.w3.org/1999/xlink" x="0px" y="0px"
	 viewBox="0 0 800 247" style="enable-background:new 0 0 800 247;" xml:space="preserve">
<style type="text/css">
	.st0{fill:#2B373D;}
</style>
<g>
	<g>
		<g>
			<path class="st0" d="M655.4,217.9c-53.6,0-97.3-43.6-97.3-97.3c0-53.6,43.6-97.3,97.3-97.3s97.3,43.6,97.3,97.3
				C752.7,174.3,709.1,217.9,655.4,217.9z M655.4,56.8c-35.2,0-63.8,28.6-63.8,63.8s28.6,63.8,63.8,63.8c35.2,0,63.8-28.6,63.8-63.8
				S690.6,56.8,655.4,56.8z"/>
		</g>
	</g>
	<g>
		<g>
			<path class="st0" d="M399.1,217.9c-53.6,0-97.3-43.6-97.3-97.3c0-53.6,43.6-97.3,97.3-97.3c53.6,0,97.3,43.6,97.3,97.3
				C496.4,174.3,452.8,217.9,399.1,217.9z M399.1,56.8c-35.2,0-63.8,28.6-63.8,63.8s28.6,63.8,63.8,63.8c35.2,0,63.8-28.6,63.8-63.8
				S434.3,56.8,399.1,56.8z"/>
		</g>
	</g>
	<g>
		<g>
			<path class="st0" d="M142.8,217.9c-53.6,0-97.3-43.6-97.3-97.3c0-53.6,43.6-97.3,97.3-97.3s97.3,43.6,97.3,97.3
				C240.1,174.3,196.5,217.9,142.8,217.9z M142.8,56.8c-35.2,0-63.8,28.6-63.8,63.8s28.6,63.8,63.8,63.8s63.8-28.6,63.8-63.8
				S178,56.8,142.8,56.8z"/>
		</g>
	</g>
</g>
</svg>
