<?xml version="1.0" encoding="utf-8"?>
<!-- Generator: Adobe Illustrator 24.1.0, SVG Export Plug-In . SVG Version: 6.00 Build 0)  -->
<svg version="1.1" xmlns="http://www.w3.org/2000/svg" xmlns:xlink="http://www.w3.org/1999/xlink" x="0px" y="0px"
	 viewBox="0 0 599 537.1" style="enable-background:new 0 0 599 537.1;" xml:space="preserve">
<style type="text/css">
	.st0{fill:#231F20;}
</style>
<g id="next">
	<g>
		<path class="st0" d="M504.3,158.6L190.6,30.4c-9.5-3.9-28.2-10.2-60.6-7.8C78.3,30,27.8,73.4,27.8,139.7v256.4
			c0,73.1,61.2,118.3,117.9,118.3c15.2,0,30.2-3.1,44.8-9l313.8-128.2c28.6-11.7,50.2-31.9,62.3-58.4c9.7-21.1,11.1-41,11.1-50.9
			s-1.4-29.8-11.1-50.9C554.5,190.5,533,170.3,504.3,158.6z M537.9,305.7c-8.8,19.4-24.2,33.6-45.6,42.4L178.6,476.3
			c-10.7,4.4-21.8,6.6-32.9,6.6c-41.6,0-86.5-33.3-86.5-86.9V139.6c0-53.6,44.9-86.8,86.5-86.8c11.1,0,22.2,2.3,33,6.7l313.6,128.2
			c21.4,8.8,36.7,23,45.6,42.4c7.5,16.2,8.3,31.8,8.3,37.8C546.2,273.8,545.4,289.4,537.9,305.7z"/>
	</g>
</g>
<g id="eye">
	<g>
		<g>
			<path class="st0" d="M388.7,354.5c-48,0-87.1-39.1-87.1-87.1s39.1-87.1,87.1-87.1s87.1,39.1,87.1,87.1
				C475.8,315.4,436.8,354.5,388.7,354.5z M388.7,204.3c-34.8,0-63.1,28.3-63.1,63.1s28.3,63.1,63.1,63.1s63.1-28.3,63.1-63.1
				C451.8,232.6,423.5,204.3,388.7,204.3z"/>
		</g>
		<path d="M409.5,263.5c-9.1,0-16.5-7.4-16.5-16.5c0-4,1.4-7.7,3.8-10.6c-2.6-0.7-5.4-1.1-8.2-1.1c-17.6,0-32,14.3-32,32
			c0,17.6,14.3,32,32,32c17.6,0,32-14.4,32-32c0-2.6-0.3-5.1-0.9-7.4C417,262.2,413.4,263.5,409.5,263.5z"/>
	</g>
</g>
</svg>
