<?xml version="1.0" encoding="utf-8"?>
<!-- Generator: Adobe Illustrator 24.1.0, SVG Export Plug-In . SVG Version: 6.00 Build 0)  -->
<svg version="1.1" id="Layer_1" xmlns="http://www.w3.org/2000/svg" xmlns:xlink="http://www.w3.org/1999/xlink" x="0px" y="0px"
	 viewBox="0 0 631 711" style="enable-background:new 0 0 631 711;" xml:space="preserve">
<style type="text/css">
	.st0{fill:#FAFBFC;stroke:#FAFBFC;stroke-width:11;stroke-miterlimit:10;}
	.st1{fill:#FFFFFF;}
</style>
<g>
	<path class="st0" d="M386.5,694.8H237c-113.7,0-206.3-92.5-206.3-206.3V226.4c0-113.7,92.5-206.3,206.3-206.3h149.6
		c113.7,0,206.3,92.5,206.3,206.3v262.1C592.8,602.3,500.3,694.8,386.5,694.8z M237,47.8c-98.5,0-178.6,80.1-178.6,178.6v262.1
		c0,98.5,80.1,178.6,178.6,178.6h149.6c98.5,0,178.6-80.1,178.6-178.6V226.4c0-98.5-80.1-178.6-178.6-178.6L237,47.8L237,47.8z"/>
</g>
<g id="eye">
	<g>
		<g>
			<path class="st1" d="M310.8,392.5c-67.5,0-122.5-57.8-122.5-128.8s55-128.8,122.5-128.8s122.6,57.8,122.6,128.8
				C433.3,334.7,378.5,392.5,310.8,392.5z M310.8,170.4c-49,0-88.8,41.8-88.8,93.3s39.8,93.3,88.8,93.3s88.8-41.8,88.8-93.3
				C399.6,212.2,359.8,170.4,310.8,170.4z"/>
		</g>
		<path class="st1" d="M340.1,257.9c-12.8,0-23.2-10.9-23.2-24.4c0-5.9,2-11.4,5.3-15.7c-3.7-1-7.6-1.6-11.5-1.6
			c-24.8,0-45,21.1-45,47.3c0,26,20.1,47.3,45,47.3c24.8,0,45-21.3,45-47.3c0-3.8-0.4-7.5-1.3-10.9
			C350.6,256,345.6,257.9,340.1,257.9z"/>
	</g>
</g>
</svg>
