<?xml version="1.0" encoding="utf-8"?>
<!-- Generator: Adobe Illustrator 24.1.0, SVG Export Plug-In . SVG Version: 6.00 Build 0)  -->
<svg version="1.1" id="Layer_1" xmlns="http://www.w3.org/2000/svg" xmlns:xlink="http://www.w3.org/1999/xlink" x="0px" y="0px"
	 viewBox="0 0 600 304.4" style="enable-background:new 0 0 600 304.4;" xml:space="preserve">
<style type="text/css">
	.st0{fill:#17E9C9;stroke:#17E9C9;stroke-width:10;stroke-miterlimit:10;}
</style>
<path class="st0" d="M509.9,111.1c-3.2-3.2-8.4-3.2-11.6,0l-51.7,51.7c-3.1,3.1-8.1,3.1-11.2,0l-51.6-51.6
	c-3.2-3.2-8.3-3.4-11.6-0.3c-3.4,3.2-3.4,8.5-0.2,11.8l63,63c1.6,1.6,3.7,2.4,5.8,2.4c0,0,0.1,0,0.1,0c0,0,0.1,0,0.1,0
	c2.1,0,4.2-0.8,5.8-2.4l63-63C513.1,119.5,513.1,114.3,509.9,111.1z"/>
</svg>
