<?xml version="1.0" encoding="utf-8"?>
<!-- Generator: Adobe Illustrator 24.1.3, SVG Export Plug-In . SVG Version: 6.00 Build 0)  -->
<svg version="1.1" id="Layer_1" xmlns="http://www.w3.org/2000/svg" xmlns:xlink="http://www.w3.org/1999/xlink" x="0px" y="0px"
	 viewBox="0 0 460 460" style="enable-background:new 0 0 460 460;" xml:space="preserve">
<style type="text/css">
	.st0{fill:url(#SVGID_1_);}
	.st1{fill:#231F20;}
	.st2{fill:url(#SVGID_2_);stroke:#231F20;stroke-width:11.9856;stroke-linecap:round;stroke-linejoin:round;}
	.st3{fill:#F4F400;}
	.st4{clip-path:url(#SVGID_4_);}
	.st5{fill:#FFFFFF;}
	.st6{fill:none;stroke:#231F20;stroke-width:6.0071;stroke-linecap:round;stroke-linejoin:round;}
	.st7{fill:none;stroke:#231F20;stroke-width:14.0163;stroke-linecap:round;stroke-linejoin:round;}
</style>
<linearGradient id="SVGID_1_" gradientUnits="userSpaceOnUse" x1="-75.96" y1="410.2" x2="124.65" y2="410.2" gradientTransform="matrix(0.82 0 0 -1 203.2 462.82)">
	<stop  offset="0" style="stop-color:#DA51F6"/>
	<stop  offset="0.11" style="stop-color:#D64FF0"/>
	<stop  offset="0.24" style="stop-color:#CC4BE1"/>
	<stop  offset="0.39" style="stop-color:#BB44C7"/>
	<stop  offset="0.56" style="stop-color:#A43AA2"/>
	<stop  offset="0.73" style="stop-color:#852D73"/>
	<stop  offset="0.91" style="stop-color:#611D3B"/>
	<stop  offset="1" style="stop-color:#4C141B"/>
</linearGradient>
<path class="st0" d="M146.7,94.2c-3.3,0-6-2.7-6-6c0-0.3,0-0.5,0.1-0.8c1.8-11.3,5.1-22.2,9.9-32.6c10.5-22.5,26.3-34.9,45.7-35.8
	h0.3c3.3,0,6,2.7,6,6c0,1.2-0.4,2.4-1,3.4c10.8-8.3,26.4-17.6,42.8-17.6c2.2,0,4.3,0.2,6.4,0.5c3.3,0.5,5.5,3.6,4.9,6.9
	c-0.3,1.5-1.1,2.9-2.3,3.8c-3,2.6-4.4,6.6-3.7,10.5l1.4-0.5c5.4-2.3,11.3-3.6,17.2-3.7c7.9,0,16.2,2.6,24.5,7.6
	c2.8,1.7,3.7,5.4,2,8.3c-0.8,1.3-2.1,2.3-3.6,2.7c-3.8,1-7.5,2.5-10.9,4.6l0.2,0.1c8,5.3,21.2,14.2,24.6,36c0.5,3.3-1.7,6.3-5,6.8
	c-0.3,0-0.6,0.1-0.9,0.1L146.7,94.2z"/>
<path class="st1" d="M244.5,16.8c1.8,0,3.7,0.1,5.5,0.4c-5.4,4.5-7.6,11.8-5.6,18.5c0.7,2.6,1.8,3.5,3.4,3.5
	c3.8,0,10.4-4.9,20.6-4.9c5.9,0,13,1.6,21.4,6.8c0,0-25.5,6.8-12.5,15.5c7.5,5,19,12.7,22.1,32l-152.7-0.3c0,0,8.4-61.2,50-63.2
	c-2,2.9-3.6,6-4.8,9.3c-1.9,5.3-2.6,11-1.1,11c0.3,0,0.6-0.2,0.9-0.4c4.2-3.6,28-28,52.8-28 M244.5,4.9c-14.2,0-27.6,6.1-38.2,13
	c-2.2-3-5.8-4.9-9.6-4.9h-0.6c-15.1,0.7-36.2,8.1-50.8,39.2c-5,10.9-8.5,22.4-10.4,34.3c-0.9,6.6,3.7,12.6,10.3,13.5
	c0.5,0.1,1.1,0.1,1.6,0.1l152.7,0.3l0,0c6.6,0,12-5.4,12-12c0-0.6,0-1.2-0.1-1.8c-2.7-17.4-11.2-27.5-18.8-33.9l0.5-0.1
	c6.4-1.7,10.2-8.3,8.5-14.7c-0.8-3-2.7-5.5-5.3-7.1c-9.3-5.6-18.6-8.5-27.6-8.5c-2.5,0-5,0.2-7.5,0.6c1.4-2.6,1.8-5.5,1.2-8.4
	c-1-4.9-5.3-8.4-10.3-9.2C249.4,5,246.9,4.8,244.5,4.9L244.5,4.9z"/>
<linearGradient id="SVGID_2_" gradientUnits="userSpaceOnUse" x1="11.2236" y1="208.5579" x2="448.7985" y2="208.5579" gradientTransform="matrix(1 0 0 -1 0 462)">
	<stop  offset="0" style="stop-color:#EBEC50"/>
	<stop  offset="0.11" style="stop-color:#E5EB51"/>
	<stop  offset="0.24" style="stop-color:#D6E954"/>
	<stop  offset="0.39" style="stop-color:#BCE65A"/>
	<stop  offset="0.55" style="stop-color:#97E261"/>
	<stop  offset="0.72" style="stop-color:#68DC6A"/>
	<stop  offset="0.9" style="stop-color:#30D576"/>
	<stop  offset="1" style="stop-color:#0BD07D"/>
</linearGradient>
<path class="st2" d="M93.5,336.7c-5.1-7.3,0-16.2,10.8-15.1c21.6,2.2,59.1-6,60.6-43.1c1.5-35.7-38.3-38.2-38.3-38.2
	c12.3,61.9-54.7,16.6-91.4,42.5C-4,310.3,9.2,377.7,43.8,395c33.7,16.9,90.3,12.9,103.7-34.6c23.8-84.2,97.2-45.4,97.2-45.4
	s-41.6-7.2-45.4,34.6c-2.2,23.8,15.1,21.6,17.3,13c-2.2,8.6-19.4,10.8-18.2-10.8c1.6-28.2,22.5-36.8,44.5-36.3
	c-77.5-51.5-145.1,79.4-50.3,121.5c43.1,19.1,103.9-5.3,103.9-87.4c0-56.2,30.2-64.8,30.2-64.8c-8.6,36.7,20.1,66.6,36.7,64.8
	c19.4-2.2,15.1-25.9,15.1-25.9c4,16.7-8.6,30.2-23,24.8c-9.8-3.8-37.5-26.2-29.7-63.8c-32.1,13.8-38.1,68.4-16.3,98.6
	c34.4,47.8,127.2,43.7,137.5-16.2c15.7-90.9-88.9-101.7-88.9-170.9c0-71.4-59.3-132.5-132.5-132.5l0,0c-73-0.1-132.4,59-132.5,132
	c0,0.2,0,0.3,0,0.5c0,43.3-14.7,76.6-14.7,76.6s62.2,14.7,47.2-33.3c0,0,38.9,6.5,38.9,41c0,35.3-36.7,43.2-60.5,41
	C94.3,320.6,88.6,329.8,93.5,336.7z"/>
<path class="st3" d="M322.6,330.5c1.9,4.5,2.3,8.9,0.3,9.7s-5.9-2.2-7.7-6.7s-1.1-8.8,1-9.6S320.7,326,322.6,330.5z"/>
<path class="st3" d="M343.9,352.5c3.6,2.2,7,4.3,6.3,5.4s-6,1.4-9.7-0.9s-4.2-6-3.5-7.1S340.3,350.2,343.9,352.5z"/>
<path class="st3" d="M118.7,310.3c-4.5,0.8-8.3,0.4-8.7-1.7s2.8-5,7.4-5.8s8.7,0.8,9,2.9S123.2,309.5,118.7,310.3z"/>
<path class="st3" d="M152,269.4c1.2,3.1,0.9,6.2-0.4,6.7s-2.9-1.8-4.1-4.8s-1.7-5.9-0.4-6.4S150.7,266.3,152,269.4z"/>
<path class="st3" d="M91.7,314.7c-2.9,1.4-2.8,2.6-3.8,2s-0.4-3.8,1.9-5s5.3-0.6,5.8,0.9C96,313.7,94,313.5,91.7,314.7z"/>
<path class="st3" d="M148.8,297c-3.4,4.8-8.4,5.9-11,4.1s-2-6.2,1.8-10.7c4.6-5.4,7.3-6.9,10.4-7.1
	C153.6,283.1,152.2,292.2,148.8,297z"/>
<path class="st3" d="M185,334.3c-3.8,2.5-7.9,3.1-9.6,0.5s-0.3-7.1,3.5-9.7s8.6-2,10.3,0.5S188.8,331.7,185,334.3z"/>
<path class="st3" d="M180.4,400.2c2.4,4.2,2.5,8.4-0.2,10s-7.4,0-9.8-4.2s-1.8-9.5,1-11.1S178,396,180.4,400.2z"/>
<path class="st3" d="M178.2,367.2c-2.6,8.2-8.7,15.1-14.2,13.4s-8.1-11.3-5.6-19.5s9.4-12,14.9-10.3S180.8,359,178.2,367.2z"/>
<path class="st3" d="M207.5,415.4c8.4,2.1,14.6,6.7,13.4,11.2s-9.6,8.3-18,6.1s-13.5-9.4-12.3-13.9S199.2,413.2,207.5,415.4z"/>
<circle class="st1" cx="255.1" cy="280.6" r="15.1"/>
<g>
	<defs>
		<circle id="SVGID_3_" cx="255.1" cy="280.6" r="15.1"/>
	</defs>
	<clipPath id="SVGID_4_">
		<use xlink:href="#SVGID_3_"  style="overflow:visible;"/>
	</clipPath>
	<g class="st4">
		<path class="st5" d="M252.6,262.9h5c1.8,0,3.2,1.4,3.2,3.2v12.6c0,1.8-1.4,3.2-3.2,3.2h-5c-1.8,0-3.2-1.4-3.2-3.2v-12.6
			C249.4,264.3,250.8,262.9,252.6,262.9z"/>
	</g>
</g>
<circle class="st6" cx="255.1" cy="280.6" r="15.1"/>
<line class="st7" x1="185" y1="190.8" x2="270" y2="223.4"/>
<line class="st7" x1="185" y1="223.4" x2="270" y2="190.8"/>
</svg>
