<svg id="Layer_1" data-name="Layer 1" xmlns="http://www.w3.org/2000/svg" xmlns:xlink="http://www.w3.org/1999/xlink" width="460" height="460" viewBox="0 0 460 460"><defs><linearGradient id="New_Gradient_Swatch_3" x1="-156.96" y1="51.82" x2="43.65" y2="51.82" gradientTransform="matrix(0.82, 0, 0, 1, 269.62, 0.82)" gradientUnits="userSpaceOnUse"><stop offset="0" stop-color="#da51f6"/><stop offset="0.11" stop-color="#d64ff0"/><stop offset="0.24" stop-color="#cc4be1"/><stop offset="0.39" stop-color="#bb44c7"/><stop offset="0.56" stop-color="#a43aa2"/><stop offset="0.73" stop-color="#852d73"/><stop offset="0.91" stop-color="#611d3b"/><stop offset="1" stop-color="#4c141b"/></linearGradient><linearGradient id="New_Gradient_Swatch_4" x1="11.2" y1="253.44" x2="448.8" y2="253.44" gradientUnits="userSpaceOnUse"><stop offset="0" stop-color="#ebec50"/><stop offset="0.11" stop-color="#e5eb51"/><stop offset="0.24" stop-color="#d6e954"/><stop offset="0.39" stop-color="#bce65a"/><stop offset="0.55" stop-color="#97e261"/><stop offset="0.72" stop-color="#68dc6a"/><stop offset="0.9" stop-color="#30d576"/><stop offset="1" stop-color="#0bd07d"/></linearGradient><clipPath id="clip-path"><circle cx="255.09" cy="280.65" r="15.09" style="fill:#231f20;stroke:#231f20;stroke-linecap:round;stroke-linejoin:round;stroke-width:6.007130640064702px"/></clipPath></defs><path d="M146.71,94.16a6,6,0,0,1-5.92-6.81,125.35,125.35,0,0,1,9.92-32.56C161.26,32.32,177.06,19.94,196.39,19h.3a6,6,0,0,1,4.95,9.37c10.82-8.28,26.4-17.57,42.85-17.57a42.79,42.79,0,0,1,6.43.49A6,6,0,0,1,253.56,22a11.28,11.28,0,0,0-3.72,10.46l1.38-.52a46.18,46.18,0,0,1,17.16-3.72c7.94,0,16.19,2.57,24.54,7.63a6,6,0,0,1-1.57,10.91,39.59,39.59,0,0,0-10.87,4.62l.2.14c8,5.35,21.21,14.2,24.65,36a6,6,0,0,1-5.91,6.92ZM279.37,50.45Z" style="fill:url(#New_Gradient_Swatch_3)"/><path d="M244.49,16.79a35.35,35.35,0,0,1,5.51.42,17.54,17.54,0,0,0-5.61,18.48c.68,2.56,1.79,3.45,3.42,3.45,3.79,0,10.37-4.9,20.57-4.9,5.88,0,13,1.63,21.43,6.76,0,0-25.55,6.77-12.46,15.53,7.5,5,19,12.67,22.07,32l-152.69-.31S155.15,27,196.69,25a44.9,44.9,0,0,0-4.8,9.31c-1.85,5.31-2.55,11-1.06,11a1.41,1.41,0,0,0,.85-.42c4.18-3.6,28-28,52.81-28m0-12c-14.2,0-27.57,6.1-38.23,13A12,12,0,0,0,196.69,13h-.59c-15.13.74-36.22,8.15-50.82,39.23a132.4,132.4,0,0,0-10.43,34.29,12,12,0,0,0,11.85,13.62l152.69.32h0a12,12,0,0,0,11.83-13.86c-2.74-17.38-11.23-27.52-18.83-33.9l.46-.12A12,12,0,0,0,296,30.75c-9.3-5.63-18.6-8.49-27.65-8.49a44,44,0,0,0-7.45.63,12,12,0,0,0,1.17-8.37c-1-4.89-5.33-8.4-10.27-9.16a48.14,48.14,0,0,0-7.34-.56Z" style="fill:#231f20"/><path d="M93.46,336.67c-5.11-7.31,0-16.21,10.8-15.13,21.61,2.16,59.11-6,60.63-43.13,1.46-35.68-38.34-38.24-38.34-38.24,12.28,61.93-54.69,16.57-91.41,42.49C-4,310.32,9.21,377.71,43.78,395c33.74,16.87,90.32,12.85,103.69-34.56,23.76-84.25,97.21-45.37,97.21-45.37s-41.57-7.21-45.37,34.57c-2.16,23.76,15.13,21.6,17.29,13-2.16,8.64-19.45,10.8-18.19-10.78,1.64-28.23,22.51-36.75,44.48-36.31C165.35,264.07,97.78,395,192.6,437.06c43.1,19.13,103.92-5.34,103.92-87.43,0-56.21,30.25-64.81,30.25-64.81-8.64,36.72,20.09,66.65,36.72,64.81,19.44-2.16,15.12-25.93,15.12-25.93,4,16.7-8.64,30.25-23,24.76-9.82-3.75-37.54-26.18-29.68-63.79-32.1,13.82-38.08,68.37-16.28,98.6C344.07,431.05,436.88,427,447.2,367.09c15.66-90.91-88.9-101.71-88.9-170.94,0-71.38-59.31-132.48-132.48-132.48h0A132.25,132.25,0,0,0,93.33,196.15c0,43.3-14.65,76.61-14.65,76.61s62.25,14.71,47.19-33.31c0,0,38.88,6.49,38.88,41.05,0,35.31-36.72,43.2-60.49,41C94.26,320.63,88.64,329.78,93.46,336.67Z" style="stroke:#231f20;stroke-linecap:round;stroke-linejoin:round;stroke-width:11.985620878653929px;fill:url(#New_Gradient_Swatch_4)"/><path d="M322.57,330.49c1.85,4.5,2.32,8.88.27,9.73s-5.85-2.17-7.7-6.67-1.06-8.76,1-9.61S320.71,326,322.57,330.49Z" style="fill:#f4f400"/><path d="M343.94,352.46c3.64,2.2,7,4.26,6.27,5.41s-6,1.35-9.67-.85-4.23-6-3.53-7.14S340.3,350.25,343.94,352.46Z" style="fill:#f4f400"/><path d="M118.67,310.34c-4.53.8-8.35.35-8.72-1.72s2.85-5,7.39-5.77,8.68.78,9,2.85S123.21,309.53,118.67,310.34Z" style="fill:#f4f400"/><path d="M152,269.38c1.25,3.1.85,6.17-.4,6.67s-2.86-1.75-4.11-4.84-1.66-5.86-.42-6.36S150.72,266.29,152,269.38Z" style="fill:#f4f400"/><path d="M91.67,314.67c-2.87,1.42-2.77,2.59-3.83,2s-.39-3.75,1.9-5,5.27-.56,5.8.86C96,313.71,94,313.51,91.67,314.67Z" style="fill:#f4f400"/><path d="M148.77,297c-3.41,4.76-8.45,5.91-11,4.1s-2-6.23,1.82-10.66c4.63-5.37,7.33-6.88,10.43-7.12C153.55,283.06,152.18,292.25,148.77,297Z" style="fill:#f4f400"/><path d="M185,334.27c-3.82,2.53-7.92,3.06-9.6.54s-.28-7.15,3.53-9.68,8.61-2,10.29.51S188.77,331.74,185,334.27Z" style="fill:#f4f400"/><path d="M180.45,400.17c2.43,4.21,2.53,8.39-.25,10s-7.41,0-9.84-4.17-1.75-9.47,1-11.08S178,396,180.45,400.17Z" style="fill:#f4f400"/><path d="M178.17,367.25c-2.57,8.25-8.74,15.1-14.2,13.39s-8.13-11.3-5.56-19.55,9.42-12,14.88-10.32S180.75,359,178.17,367.25Z" style="fill:#f4f400"/><path d="M207.54,415.36c8.38,2.14,14.56,6.67,13.41,11.18s-9.61,8.26-18,6.13-13.49-9.35-12.34-13.86S199.17,413.23,207.54,415.36Z" style="fill:#f4f400"/><circle cx="255.09" cy="280.65" r="15.09" style="fill:#231f20"/><g style="clip-path:url(#clip-path)"><rect x="249.4" y="262.88" width="11.39" height="18.99" rx="3.21" style="fill:#fff"/></g><circle cx="255.09" cy="280.65" r="15.09" style="fill:none;stroke:#231f20;stroke-linecap:round;stroke-linejoin:round;stroke-width:6.007130640064702px"/><line x1="185.04" y1="190.78" x2="269.97" y2="223.36" style="fill:none;stroke:#231f20;stroke-linecap:round;stroke-linejoin:round;stroke-width:14.016303754360697px"/><line x1="185.04" y1="223.36" x2="269.97" y2="190.78" style="fill:none;stroke:#231f20;stroke-linecap:round;stroke-linejoin:round;stroke-width:14.016303754360697px"/></svg>