<?xml version="1.0" encoding="utf-8"?>
<!-- Generator: Adobe Illustrator 24.1.2, SVG Export Plug-In . SVG Version: 6.00 Build 0)  -->
<svg version="1.1" id="Layer_1" xmlns="http://www.w3.org/2000/svg" xmlns:xlink="http://www.w3.org/1999/xlink" x="0px" y="0px"
	 viewBox="0 0 409 171" style="enable-background:new 0 0 409 171;" xml:space="preserve">
<style type="text/css">
	.st0{fill:url(#SVGID_1_);}
	.st1{fill:#231F20;}
	.st2{clip-path:url(#SVGID_4_);}
	.st3{fill:#FFFFFF;stroke:#231F20;stroke-width:4;stroke-linecap:round;stroke-linejoin:round;stroke-miterlimit:10;}
	.st4{fill:#FFFFFF;}
	.st5{fill:url(#SVGID_5_);stroke:#231F20;stroke-width:4;stroke-linecap:round;stroke-linejoin:round;stroke-miterlimit:10;}
	.st6{fill:url(#SVGID_6_);stroke:#231F20;stroke-width:4;stroke-linecap:round;stroke-linejoin:round;stroke-miterlimit:10;}
	.st7{fill:url(#SVGID_7_);stroke:#231F20;stroke-width:4;stroke-linecap:round;stroke-linejoin:round;stroke-miterlimit:10;}
	.st8{opacity:0.66;}
	.st9{fill:#F4F400;}
	.st10{display:none;}
	.st11{display:inline;}
</style>
<g>
	<g>
		<g>
			
				<linearGradient id="SVGID_1_" gradientUnits="userSpaceOnUse" x1="-169.6284" y1="20.0999" x2="-102.6768" y2="20.0999" gradientTransform="matrix(0.8209 -5.438585e-04 -5.438725e-04 1 197.806 0.6006)">
				<stop  offset="0" style="stop-color:#DA51F6"/>
				<stop  offset="0.1069" style="stop-color:#D64FF0"/>
				<stop  offset="0.243" style="stop-color:#CC4BE1"/>
				<stop  offset="0.3947" style="stop-color:#BB44C7"/>
				<stop  offset="0.558" style="stop-color:#A43AA2"/>
				<stop  offset="0.7304" style="stop-color:#852D73"/>
				<stop  offset="0.9078" style="stop-color:#611D3B"/>
				<stop  offset="1" style="stop-color:#4C141B"/>
			</linearGradient>
			<path class="st0" d="M60.5,34.6c-0.6,0-1.1-0.3-1.5-0.7s-0.6-1-0.5-1.6c0-0.2,0.8-5.5,3.3-10.9C65.4,14,70.7,9.9,77.1,9.5
				c0,0,0.1,0,0.1,0c0.7,0,1.4,0.4,1.7,1c0.4,0.7,0.3,1.5-0.1,2.1c3.6-2.8,8.8-5.9,14.3-5.9c0.7,0,1.4,0.1,2.1,0.2
				c0.8,0.1,1.4,0.7,1.6,1.5c0.2,0.8-0.1,1.6-0.8,2.1C96,10.7,94.6,11.9,95,14c0.2-0.1,0.3-0.1,0.5-0.2c1.3-0.5,3.2-1.2,5.7-1.2
				c2.6,0,5.4,0.9,8.2,2.5c0.7,0.4,1.1,1.2,0.9,2c-0.1,0.8-0.7,1.4-1.5,1.6c-1.4,0.4-2.9,1-3.6,1.5c0,0,0,0,0.1,0
				c2.7,1.8,7.1,4.7,8.2,12c0.1,0.6-0.1,1.2-0.5,1.6c-0.4,0.4-0.9,0.7-1.5,0.7C111.5,34.7,60.5,34.6,60.5,34.6z M104.8,20L104.8,20z
				"/>
			<path class="st1" d="M93.2,8.8c0.6,0,1.2,0,1.8,0.1c0,0-2.9,2.2-1.9,6.2c0.2,0.9,0.6,1.2,1.1,1.2c1.3,0,3.5-1.6,6.9-1.6
				c2,0,4.3,0.5,7.2,2.3c0,0-8.5,2.3-4.2,5.2c2.5,1.7,6.3,4.2,7.4,10.7l-51-0.1c0,0,2.8-20.4,16.7-21.1c0,0-1,1.5-1.6,3.1
				c-0.6,1.8-0.8,3.7-0.4,3.7c0.1,0,0.2,0,0.3-0.1C76.9,17,84.9,8.8,93.2,8.8 M93.2,4.8c-4.7,0-9.2,2-12.8,4.3
				c-0.8-1-1.9-1.6-3.2-1.6c-0.1,0-0.1,0-0.2,0c-7.2,0.4-13.1,4.9-17,13.1c-2.7,5.7-3.4,11.2-3.5,11.4c-0.2,1.1,0.2,2.3,0.9,3.2
				s1.9,1.4,3,1.4l51,0.1c0,0,0,0,0,0c1.2,0,2.3-0.5,3-1.4c0.8-0.9,1.1-2.1,0.9-3.2c-0.9-5.8-3.7-9.2-6.3-11.3c0.1,0,0.1,0,0.2,0
				c1.6-0.4,2.7-1.7,2.9-3.3c0.2-1.6-0.5-3.2-1.9-4c-3.1-1.9-6.2-2.8-9.2-2.8c-0.9,0-1.7,0.1-2.5,0.2C99.1,10,99.3,9,99.1,8
				c-0.3-1.6-1.8-2.8-3.4-3.1C94.8,4.9,94,4.8,93.2,4.8L93.2,4.8z"/>
		</g>
		<g>
			<defs>
				<path id="SVGID_2_" d="M131.2,80H42.7V67.1c0-24.4,19.8-44.2,44.2-44.2h0c24.4,0,44.2,19.8,44.2,44.2V80z"/>
			</defs>
			<linearGradient id="SVGID_3_" gradientUnits="userSpaceOnUse" x1="42.7277" y1="51.4342" x2="131.1569" y2="51.4342">
				<stop  offset="0" style="stop-color:#EBEC50"/>
				<stop  offset="0.1055" style="stop-color:#E5EB51"/>
				<stop  offset="0.2397" style="stop-color:#D6E954"/>
				<stop  offset="0.3894" style="stop-color:#BCE65A"/>
				<stop  offset="0.5504" style="stop-color:#97E261"/>
				<stop  offset="0.7205" style="stop-color:#68DC6A"/>
				<stop  offset="0.8955" style="stop-color:#30D576"/>
				<stop  offset="1" style="stop-color:#0BD07D"/>
			</linearGradient>
			<use xlink:href="#SVGID_2_"  style="overflow:visible;fill:url(#SVGID_3_);"/>
			<clipPath id="SVGID_4_">
				<use xlink:href="#SVGID_2_"  style="overflow:visible;"/>
			</clipPath>
			<g class="st2">
				<circle class="st3" cx="86.9" cy="65.9" r="18.3"/>
				<circle class="st1" cx="86.9" cy="65.9" r="8.1"/>
				<circle class="st4" cx="91.1" cy="61.8" r="2.8"/>
			</g>
			
				<use xlink:href="#SVGID_2_"  style="overflow:visible;fill:none;stroke:#231F20;stroke-width:4;stroke-linecap:round;stroke-linejoin:round;stroke-miterlimit:10;"/>
		</g>
		<rect x="35.6" y="72.4" class="st3" width="102.6" height="62.5"/>
		<linearGradient id="SVGID_5_" gradientUnits="userSpaceOnUse" x1="9.8387" y1="105.1274" x2="63.7321" y2="105.1274">
			<stop  offset="0" style="stop-color:#EBEC50"/>
			<stop  offset="0.1055" style="stop-color:#E5EB51"/>
			<stop  offset="0.2397" style="stop-color:#D6E954"/>
			<stop  offset="0.3894" style="stop-color:#BCE65A"/>
			<stop  offset="0.5504" style="stop-color:#97E261"/>
			<stop  offset="0.7205" style="stop-color:#68DC6A"/>
			<stop  offset="0.8955" style="stop-color:#30D576"/>
			<stop  offset="1" style="stop-color:#0BD07D"/>
		</linearGradient>
		<path class="st5" d="M35.5,108.5V129c-20.2,2.4-27.6-14.1-25.3-26.3C13.1,88.2,27,83.5,37,89.8c10.5,6.6,18.6,4.1,13.9-8.8
			c0,0,12.4,0.8,12.8,12.8c0.3,10.4-10.1,17.6-19.1,14.2c-9.7-3.6-12.5-0.1-9.2,3.2"/>
		<linearGradient id="SVGID_6_" gradientUnits="userSpaceOnUse" x1="58.1337" y1="134.7302" x2="110.1138" y2="134.7302">
			<stop  offset="0" style="stop-color:#EBEC50"/>
			<stop  offset="0.1055" style="stop-color:#E5EB51"/>
			<stop  offset="0.2397" style="stop-color:#D6E954"/>
			<stop  offset="0.3894" style="stop-color:#BCE65A"/>
			<stop  offset="0.5504" style="stop-color:#97E261"/>
			<stop  offset="0.7205" style="stop-color:#68DC6A"/>
			<stop  offset="0.8955" style="stop-color:#30D576"/>
			<stop  offset="1" style="stop-color:#0BD07D"/>
		</linearGradient>
		<path class="st6" d="M86.6,135.1c-7,2.9-10.1-2.5-8.8-8.8c1.3-6.4,8-10.6,14.8-12.1c-28.5-18.9-49.3,27-21.1,42.7
			c13.7,7.7,38.6,0.5,38.6-21.9H82.7"/>
		<linearGradient id="SVGID_7_" gradientUnits="userSpaceOnUse" x1="112.0366" y1="112.06" x2="162.5751" y2="112.06">
			<stop  offset="0" style="stop-color:#EBEC50"/>
			<stop  offset="0.1055" style="stop-color:#E5EB51"/>
			<stop  offset="0.2397" style="stop-color:#D6E954"/>
			<stop  offset="0.3894" style="stop-color:#BCE65A"/>
			<stop  offset="0.5504" style="stop-color:#97E261"/>
			<stop  offset="0.7205" style="stop-color:#68DC6A"/>
			<stop  offset="0.8955" style="stop-color:#30D576"/>
			<stop  offset="1" style="stop-color:#0BD07D"/>
		</linearGradient>
		<path class="st7" d="M138.7,114.8V86.6c5.1,7.2,26.7,14.7,23.6,34.7c-3.1,20-34.4,21.3-45.9,5.4c-7.3-10.1-5.3-28.3,5.4-32.9
			c-2.6,12.6,6.8,19.7,9.9,21.3c4,2.1,8.5,2.1,7.1-3.5"/>
		<g class="st8">
			<path class="st9" d="M74.6,119.9c-2.1,1.4-4.3,1.7-5.2,0.3c-0.9-1.4-0.2-3.9,1.9-5.3s4.7-1.1,5.6,0.3
				C77.8,116.5,76.7,118.5,74.6,119.9z"/>
			<path class="st9" d="M44.4,104c-2.2-0.6-3.7-1.6-3.5-2.6c0.3-1,2.3-1.6,4.5-1c2.2,0.6,3.6,2.2,3.4,3.1
				C48.5,104.6,46.6,104.6,44.4,104z"/>
			<path class="st9" d="M70.4,143.8c0.8,1.4,0.8,2.8-0.1,3.3s-2.5,0-3.3-1.4c-0.8-1.4-0.6-3.2,0.3-3.7
				C68.3,141.5,69.5,142.4,70.4,143.8z"/>
			<path class="st9" d="M121.4,109.8c0.6,1.5,0.8,3,0.1,3.2c-0.7,0.3-2-0.7-2.6-2.2s-0.4-2.9,0.3-3.2
				C119.9,107.3,120.8,108.3,121.4,109.8z"/>
			<path class="st9" d="M128.5,116.4c1.2,0.7,2.3,1.4,2.1,1.8c-0.2,0.4-2,0.5-3.2-0.3s-1.4-2-1.2-2.4
				C126.4,115.1,127.3,115.6,128.5,116.4z"/>
			<path class="st9" d="M59.3,89.4c0.6,1.5,0.4,3-0.2,3.2c-0.6,0.2-1.4-0.9-2-2.4c-0.6-1.5-0.8-2.8-0.2-3.1S58.7,87.9,59.3,89.4z"/>
			<path class="st9" d="M34.2,104.8c-1.4,0.7-1.3,1.3-1.9,1c-0.5-0.2-0.2-1.8,0.9-2.4c1.1-0.6,2.6-0.3,2.8,0.4
				C36.3,104.3,35.3,104.2,34.2,104.8z"/>
			<path class="st9" d="M68.2,131.4c-0.9,2.8-2.9,5-4.7,4.5c-1.8-0.6-2.7-3.8-1.9-6.5c0.9-2.8,3.1-4,5-3.4
				C68.3,126.5,69,128.6,68.2,131.4z"/>
			<path class="st9" d="M58.2,101.3c-1.3,1.8-3.1,2.2-4,1.5c-0.9-0.7-0.7-2.3,0.7-3.9c1.7-2,2.7-2.5,3.8-2.6
				C60,96.1,59.5,99.5,58.2,101.3z"/>
			<path class="st9" d="M79.4,150.3c2.8,0.7,4.9,2.2,4.5,3.7c-0.4,1.5-3.2,2.8-6,2c-2.8-0.7-4.5-3.1-4.1-4.6
				C74.1,150,76.6,149.6,79.4,150.3z"/>
		</g>
	</g>
	<g class="st10">
		<path class="st11" d="M175.6,81.9h9.1c0,1-0.1,1.8-0.2,2.5c-0.4,2.1-1.8,3.2-4.3,3.2h-11.9c-1.2,0-2.1-0.4-2.8-1.1s-1-1.7-1-2.9
			V54l0.3-0.3h2.5c1.3,0,2.3,0.3,2.9,1c0.6,0.7,0.9,1.7,0.9,3.2v24.2C172.6,81.9,174.1,81.9,175.6,81.9z"/>
		<path class="st11" d="M195.3,68.1v19.4c-0.5,0.1-1,0.2-1.5,0.2c-0.5,0-1.1,0-1.6,0c-0.6,0-1.1,0-1.6,0c-0.5,0-1.1-0.1-1.6-0.2
			V70.4c0-1.8-0.7-2.7-2.2-2.7H186c-0.2-0.7-0.3-1.5-0.3-2.3c0-0.7,0.1-1.5,0.3-2.3c0.8-0.1,1.4-0.1,2.1-0.2c0.6,0,1.2-0.1,1.6-0.1
			h0.8c1.5,0,2.6,0.5,3.5,1.4C194.8,65.2,195.3,66.5,195.3,68.1z M187.8,53.6c0.8-0.4,1.8-0.6,3.2-0.6c0.8,0,1.5,0.1,2,0.2
			c0.5,0.1,0.9,0.3,1.1,0.5c0.2,0.2,0.4,0.5,0.4,1c0.1,0.5,0.1,1,0.1,1.5c-0.1,1.7-0.3,2.6-0.6,2.8c-0.3,0.2-1.3,0.3-3.1,0.5
			c-1.8-0.1-2.9-0.3-3.2-0.7c-0.3-0.4-0.5-1.3-0.5-2.5C187.4,55.2,187.5,54.4,187.8,53.6z"/>
		<path class="st11" d="M209.8,82.5l5-19.4c0.7-0.2,1.5-0.2,2.6-0.2s2.1,0.2,3,0.5l0.2,0.3c-3.2,11.2-5.6,19.1-7.2,23.8
			c-1.4,0.2-2.9,0.3-4.4,0.3s-2.6-0.2-3.3-0.7c-0.7-0.4-1.2-1.3-1.6-2.6l-6.3-20.9c1.3-0.6,2.5-0.9,3.6-0.9c1.9,0,3.1,1,3.6,2.9
			l2.8,10c0.4,1.2,0.9,3.4,1.5,6.5C209.3,82.3,209.5,82.5,209.8,82.5z"/>
		<path class="st11" d="M241.8,77.3h-13.6c0.1,1.8,0.5,3.2,1.3,4.2c0.7,1,2,1.5,3.9,1.5c1.9,0,4.1-0.6,6.5-1.7
			c0.9,1,1.6,2.3,1.8,3.9c-2.6,1.9-5.8,2.8-9.4,2.8c-3.5,0-6.1-1.1-7.9-3.2c-1.8-2.1-2.7-5.3-2.7-9.6c0-2,0.2-3.7,0.7-5.3
			c0.5-1.6,1.1-2.9,2-4.1c0.9-1.1,2-2,3.2-2.6c1.3-0.6,2.7-0.9,4.4-0.9c1.7,0,3.1,0.3,4.4,0.8c1.3,0.5,2.4,1.2,3.2,2.2
			c0.9,0.9,1.5,2,2,3.3c0.4,1.3,0.7,2.7,0.7,4.2c0,0.8,0,1.6-0.1,2.3C242.1,75.9,242,76.6,241.8,77.3z M232.4,67
			c-2.6,0-3.9,1.9-4.1,5.8h8.2v-0.6c0-1.6-0.3-2.8-1-3.8C234.8,67.5,233.7,67,232.4,67z"/>
		<path class="st11" d="M268.2,85.3c-1,0.9-2.3,1.5-4,1.9s-3.4,0.6-5.2,0.6c-0.9,0-2.3,0-4.1,0c-1.8,0-4.2-0.1-7.1-0.1l-0.3-0.3
			V54.2l0.3-0.3c1.9-0.1,3.8-0.1,5.7-0.1c1.9,0,3.9,0,5.9,0c2.8,0,5,0.4,6.9,1.3c1.8,0.9,3.3,2.1,4.3,3.7c1.1,1.6,1.8,3.4,2.3,5.4
			c0.4,2.1,0.7,4.3,0.7,6.6c0,3.3-0.4,6.1-1.1,8.5C271.7,81.6,270.3,83.6,268.2,85.3z M265.5,62.8c-1-2.6-3-3.9-6.1-3.9
			c-1.1,0-2.2,0-3,0s-1.6,0-2.3,0v23.7c0.6,0,1.3,0,2.1,0c0.8,0,1.6,0,2.4,0c0.8,0,1.6-0.1,2.3-0.2c0.7-0.1,1.3-0.3,1.7-0.5
			c0.8-0.5,1.5-1.1,2.1-1.8c0.5-0.8,1-1.7,1.2-2.7c0.3-1,0.5-2.1,0.6-3.2c0.1-1.2,0.2-2.4,0.2-3.6c0-1.4-0.1-2.7-0.3-3.9
			C266.4,65.3,266,64.1,265.5,62.8z"/>
		<path class="st11" d="M297.2,77.3h-13.6c0.1,1.8,0.5,3.2,1.3,4.2c0.7,1,2,1.5,3.9,1.5c1.9,0,4.1-0.6,6.5-1.7
			c0.9,1,1.6,2.3,1.8,3.9c-2.6,1.9-5.8,2.8-9.4,2.8c-3.5,0-6.1-1.1-7.9-3.2c-1.8-2.1-2.7-5.3-2.7-9.6c0-2,0.2-3.7,0.7-5.3
			c0.5-1.6,1.1-2.9,2-4.1c0.9-1.1,2-2,3.2-2.6c1.3-0.6,2.7-0.9,4.4-0.9c1.7,0,3.1,0.3,4.4,0.8c1.3,0.5,2.4,1.2,3.2,2.2
			c0.9,0.9,1.5,2,2,3.3c0.4,1.3,0.7,2.7,0.7,4.2c0,0.8,0,1.6-0.1,2.3C297.4,75.9,297.3,76.6,297.2,77.3z M287.7,67
			c-2.6,0-3.9,1.9-4.1,5.8h8.2v-0.6c0-1.6-0.3-2.8-1-3.8C290.1,67.5,289,67,287.7,67z"/>
		<path class="st11" d="M315,73.2c0-2-0.2-3.5-0.7-4.5c-0.5-1-1.4-1.5-2.9-1.5c-2.6,0-3.9,2.7-3.9,8.2c0,2.7,0.4,4.6,1.1,5.8
			c0.8,1.2,2,1.8,3.6,1.8c0.8,0,1.8-0.2,2.7-0.5c1-0.4,2-0.9,3-1.7c0.5,0.3,1,0.9,1.5,1.6c0.5,0.7,0.8,1.4,1,2.1
			c-1.1,1.1-2.5,2-4.1,2.7c-1.6,0.7-3.3,1-5.1,1c-3.4,0-6-1.2-7.8-3.5c-1.8-2.3-2.7-5.6-2.7-9.7c0-2.1,0.3-3.9,0.9-5.5
			c0.6-1.6,1.4-2.9,2.3-3.9c1-1,2.1-1.8,3.4-2.4c1.3-0.5,2.6-0.8,4-0.8c1.4,0,2.7,0.2,3.9,0.6c1.2,0.4,2.1,1,2.9,1.7
			c0.8,0.7,1.4,1.5,1.9,2.5c0.4,0.9,0.7,1.9,0.7,3c0,1-0.3,1.9-0.8,2.4c-0.5,0.6-1.4,0.9-2.4,0.9C316.5,73.5,315.7,73.4,315,73.2z"
			/>
		<path class="st11" d="M342.3,78l1.4,3.8c0.7,2.1,1.5,3.4,2.4,4c-1.1,1.3-2.6,2-4.3,2c-1,0-1.7-0.2-2.2-0.7c-0.5-0.5-1-1.3-1.4-2.4
			l-1.7-4.5c-0.4-1.1-0.9-1.9-1.4-2.2c-0.5-0.4-1.1-0.6-1.8-0.6s-1.4,0-2.2,0.1v10c-1,0.2-2,0.2-3.1,0.2s-2.1-0.1-3.1-0.2V51.7
			l0.3-0.3h2.5c1.3,0,2.2,0.3,2.7,0.9c0.5,0.6,0.8,1.6,0.8,3.1V72l1.2,0c0.6,0,1-0.3,1.3-0.8l3.4-5.8c0.9-1.6,2.2-2.5,3.8-2.5
			c0.8,0,2,0,3.5,0.1l0.3,0.4l-4.6,7.9c-0.5,1-1.2,1.8-2.1,2.4C340,74.3,341.4,75.8,342.3,78z"/>
	</g>
	<g class="st10">
		<path class="st11" d="M175.8,97h1.4l0.8,3.4h0l0.8-3.4h1.4l0.8,3.4h0l0.8-3.4h1.4l-1.4,5h-1.5l-0.9-3.2h-0.1l-0.9,3.2h-1.5
			L175.8,97z"/>
		<path class="st11" d="M186,102h-1.4v-6.7h1.4v2.6h0.1c0.2-0.6,0.7-1,1.5-1c1,0,1.7,0.7,1.7,1.9v3.2h-1.4V99c0-0.6-0.3-1-0.9-1
			c-0.6,0-1,0.4-1,1V102z"/>
		<path class="st11" d="M190.7,99.5c0-1.5,1-2.6,2.4-2.6c1.3,0,2.4,0.8,2.4,2.5v0.4H192v0c0,0.7,0.4,1.2,1.1,1.2
			c0.5,0,0.8-0.2,1-0.6l1.3,0.1c-0.2,0.9-1,1.5-2.3,1.5C191.6,102.1,190.7,101.1,190.7,99.5z M194.1,99c0-0.6-0.4-1-1-1
			c-0.6,0-1.1,0.5-1.1,1H194.1z"/>
		<path class="st11" d="M196.9,97h1.3v0.9h0.1c0.2-0.6,0.6-0.9,1.2-0.9c0.3,0,0.5,0.1,0.7,0.2l-0.4,1.1c-0.1-0.1-0.3-0.1-0.5-0.1
			c-0.6,0-1,0.4-1,1v2.8h-1.4V97z"/>
		<path class="st11" d="M201,99.5c0-1.5,1-2.6,2.4-2.6c1.3,0,2.4,0.8,2.4,2.5v0.4h-3.4v0c0,0.7,0.4,1.2,1.1,1.2c0.5,0,0.8-0.2,1-0.6
			l1.3,0.1c-0.2,0.9-1,1.5-2.3,1.5C201.9,102.1,201,101.1,201,99.5z M204.4,99c0-0.6-0.4-1-1-1c-0.6,0-1.1,0.5-1.1,1H204.4z"/>
		<path class="st11" d="M209.9,97h1.4v0.8h0.1c0.2-0.4,0.6-0.9,1.4-0.9c1.1,0,2,0.9,2,2.6c0,1.7-0.9,2.6-2,2.6
			c-0.8,0-1.2-0.5-1.4-0.9h0v2.7h-1.4V97z M212.3,101c0.7,0,1.1-0.6,1.1-1.5c0-0.9-0.4-1.5-1.1-1.5c-0.7,0-1.1,0.6-1.1,1.5
			S211.6,101,212.3,101z"/>
		<path class="st11" d="M216.3,97h1.3v0.9h0.1c0.2-0.6,0.6-0.9,1.2-0.9c0.3,0,0.5,0.1,0.7,0.2l-0.4,1.1c-0.1-0.1-0.3-0.1-0.5-0.1
			c-0.6,0-1,0.4-1,1v2.8h-1.4V97z"/>
		<path class="st11" d="M220.3,99.5c0-1.5,1-2.6,2.4-2.6c1.3,0,2.4,0.8,2.4,2.5v0.4h-3.4v0c0,0.7,0.4,1.2,1.1,1.2
			c0.5,0,0.8-0.2,1-0.6l1.3,0.1c-0.2,0.9-1,1.5-2.3,1.5C221.3,102.1,220.3,101.1,220.3,99.5z M223.8,99c0-0.6-0.4-1-1-1
			c-0.6,0-1.1,0.5-1.1,1H223.8z"/>
		<path class="st11" d="M229.5,98.5c-0.1-0.3-0.4-0.6-0.8-0.6c-0.4,0-0.8,0.2-0.8,0.5c0,0.2,0.2,0.4,0.6,0.5l0.9,0.2
			c1,0.2,1.4,0.6,1.5,1.4c0,1-0.9,1.7-2.2,1.7c-1.3,0-2.1-0.6-2.3-1.6l1.4-0.1c0.1,0.4,0.4,0.6,0.9,0.6c0.5,0,0.8-0.2,0.8-0.5
			c0-0.3-0.2-0.4-0.6-0.5l-0.9-0.2c-1-0.2-1.5-0.7-1.5-1.4c0-1,0.8-1.6,2.1-1.6c1.3,0,2,0.6,2.1,1.5L229.5,98.5z"/>
		<path class="st11" d="M232.1,99.5c0-1.5,1-2.6,2.4-2.6c1.3,0,2.4,0.8,2.4,2.5v0.4h-3.4v0c0,0.7,0.4,1.2,1.1,1.2
			c0.5,0,0.8-0.2,1-0.6l1.3,0.1c-0.2,0.9-1,1.5-2.3,1.5C233,102.1,232.1,101.1,232.1,99.5z M235.6,99c0-0.6-0.4-1-1-1
			c-0.6,0-1.1,0.5-1.1,1H235.6z"/>
		<path class="st11" d="M239.7,102h-1.4v-5h1.3v0.9h0.1c0.2-0.6,0.8-1,1.5-1c1,0,1.7,0.7,1.7,1.9v3.2h-1.4V99c0-0.6-0.3-1-0.9-1
			c-0.6,0-0.9,0.4-1,1V102z"/>
		<path class="st11" d="M247.3,98h-0.9v2.4c0,0.4,0.2,0.5,0.5,0.5c0.1,0,0.3,0,0.3,0l0.2,1c-0.1,0-0.4,0.1-0.8,0.1
			c-1,0-1.7-0.4-1.7-1.4V98h-0.7v-1h0.7v-1.2h1.4V97h0.9V98z"/>
		<path class="st11" d="M248.5,100.6c0-1.1,0.9-1.5,1.9-1.5c0.9-0.1,1.2-0.1,1.2-0.5v0c0-0.4-0.3-0.6-0.7-0.6
			c-0.5,0-0.8,0.2-0.9,0.6l-1.3-0.1c0.2-0.9,1-1.5,2.2-1.5c1.1,0,2.1,0.5,2.1,1.7v3.4h-1.3v-0.7h0c-0.2,0.5-0.7,0.8-1.5,0.8
			C249.2,102.1,248.5,101.6,248.5,100.6z M251.6,100.2v-0.5c-0.2,0.1-0.7,0.2-1,0.2c-0.5,0.1-0.8,0.3-0.8,0.7c0,0.4,0.3,0.6,0.7,0.6
			C251.2,101.1,251.6,100.7,251.6,100.2z"/>
		<path class="st11" d="M257.3,98h-0.9v2.4c0,0.4,0.2,0.5,0.5,0.5c0.1,0,0.3,0,0.3,0l0.2,1c-0.1,0-0.4,0.1-0.8,0.1
			c-1,0-1.7-0.4-1.7-1.4V98h-0.7v-1h0.7v-1.2h1.4V97h0.9V98z"/>
		<path class="st11" d="M258.7,95.6c0-0.4,0.3-0.7,0.8-0.7c0.4,0,0.8,0.3,0.8,0.7c0,0.4-0.3,0.7-0.8,0.7
			C259,96.3,258.7,96,258.7,95.6z M258.7,97h1.4v5h-1.4V97z"/>
		<path class="st11" d="M261.6,99.5c0-1.6,0.9-2.6,2.5-2.6s2.5,1,2.5,2.6c0,1.5-0.9,2.6-2.5,2.6S261.6,101,261.6,99.5z M265.1,99.5
			c0-0.9-0.4-1.5-1-1.5c-0.7,0-1.1,0.6-1.1,1.5s0.4,1.5,1.1,1.5C264.7,101,265.1,100.4,265.1,99.5z"/>
		<path class="st11" d="M269.4,102H268v-5h1.3v0.9h0.1c0.2-0.6,0.8-1,1.5-1c1,0,1.7,0.7,1.7,1.9v3.2h-1.4V99c0-0.6-0.3-1-0.9-1
			c-0.6,0-0.9,0.4-1,1V102z"/>
		<path class="st11" d="M277.1,98.5c-0.1-0.3-0.4-0.6-0.8-0.6c-0.4,0-0.8,0.2-0.8,0.5c0,0.2,0.2,0.4,0.6,0.5l0.9,0.2
			c1,0.2,1.4,0.6,1.5,1.4c0,1-0.9,1.7-2.2,1.7c-1.3,0-2.1-0.6-2.3-1.6l1.4-0.1c0.1,0.4,0.4,0.6,0.9,0.6c0.5,0,0.8-0.2,0.8-0.5
			c0-0.3-0.2-0.4-0.6-0.5l-0.9-0.2c-1-0.2-1.5-0.7-1.5-1.4c0-1,0.8-1.6,2.1-1.6c1.3,0,2,0.6,2.1,1.5L277.1,98.5z"/>
		<path class="st11" d="M282.4,99.5c0-1.5,0.9-2.6,2.5-2.6c1.3,0,2.2,0.8,2.2,1.9h-1.3c-0.1-0.5-0.4-0.8-0.9-0.8
			c-0.6,0-1.1,0.5-1.1,1.5c0,1,0.4,1.5,1.1,1.5c0.5,0,0.8-0.3,0.9-0.8h1.3c-0.1,1.2-0.9,1.9-2.2,1.9
			C283.4,102.1,282.4,101,282.4,99.5z"/>
		<path class="st11" d="M288.4,99.5c0-1.6,0.9-2.6,2.5-2.6s2.5,1,2.5,2.6c0,1.5-0.9,2.6-2.5,2.6S288.4,101,288.4,99.5z M291.9,99.5
			c0-0.9-0.4-1.5-1-1.5c-0.7,0-1.1,0.6-1.1,1.5s0.4,1.5,1.1,1.5C291.6,101,291.9,100.4,291.9,99.5z"/>
		<path class="st11" d="M294.8,97h1.3v0.9h0.1c0.2-0.6,0.7-1,1.4-1c0.7,0,1.2,0.4,1.4,1h0.1c0.2-0.6,0.8-1,1.5-1
			c0.9,0,1.6,0.6,1.6,1.7v3.4h-1.4v-3.1c0-0.6-0.3-0.8-0.8-0.8c-0.5,0-0.8,0.4-0.8,0.9v3.1h-1.3v-3.1c0-0.5-0.3-0.8-0.8-0.8
			c-0.5,0-0.8,0.4-0.8,0.9v3h-1.4V97z"/>
		<path class="st11" d="M303.5,99.5c0-1.5,1-2.6,2.4-2.6c1.3,0,2.4,0.8,2.4,2.5v0.4h-3.4v0c0,0.7,0.4,1.2,1.1,1.2
			c0.5,0,0.8-0.2,1-0.6l1.3,0.1c-0.2,0.9-1,1.5-2.3,1.5C304.5,102.1,303.5,101.1,303.5,99.5z M307,99c0-0.6-0.4-1-1-1
			c-0.6,0-1.1,0.5-1.1,1H307z"/>
		<path class="st11" d="M312.2,100.6c0-1.1,0.9-1.5,1.9-1.5c0.9-0.1,1.2-0.1,1.2-0.5v0c0-0.4-0.3-0.6-0.7-0.6
			c-0.5,0-0.8,0.2-0.9,0.6l-1.3-0.1c0.2-0.9,1-1.5,2.2-1.5c1.1,0,2.1,0.5,2.1,1.7v3.4h-1.3v-0.7h0c-0.2,0.5-0.7,0.8-1.5,0.8
			C312.9,102.1,312.2,101.6,312.2,100.6z M315.3,100.2v-0.5c-0.2,0.1-0.7,0.2-1,0.2c-0.5,0.1-0.8,0.3-0.8,0.7c0,0.4,0.3,0.6,0.7,0.6
			C314.9,101.1,315.3,100.7,315.3,100.2z"/>
		<path class="st11" d="M319.7,102h-1.4v-6.7h1.4V102z"/>
		<path class="st11" d="M321.3,95.6c0-0.4,0.3-0.7,0.8-0.7c0.4,0,0.8,0.3,0.8,0.7c0,0.4-0.3,0.7-0.8,0.7
			C321.7,96.3,321.3,96,321.3,95.6z M321.4,97h1.4v5h-1.4V97z"/>
		<path class="st11" d="M327.4,102h-1.6l-1.8-5h1.5l1,3.6h0.1l1-3.6h1.5L327.4,102z"/>
		<path class="st11" d="M330,99.5c0-1.5,1-2.6,2.4-2.6c1.3,0,2.4,0.8,2.4,2.5v0.4h-3.4v0c0,0.7,0.4,1.2,1.1,1.2c0.5,0,0.8-0.2,1-0.6
			l1.3,0.1c-0.2,0.9-1,1.5-2.3,1.5C331,102.1,330,101.1,330,99.5z M333.5,99c0-0.6-0.4-1-1-1c-0.6,0-1.1,0.5-1.1,1H333.5z"/>
	</g>
	<g>
		<g>
			<path d="M182.7,89.1h12.4c0,0.9-0.1,1.8-0.2,2.7c-0.4,2.2-1.8,3.2-4.3,3.2h-16.4c-1.2,0-2.1-0.4-2.8-1.1c-0.7-0.7-1.1-1.7-1.1-3
				V52.2l0.4-0.4h2.5c1.4,0,2.4,0.3,2.9,1c0.6,0.7,0.9,1.8,0.9,3.3v33.3C178.8,89.1,180.7,89.1,182.7,89.1z"/>
			<path d="M207.4,69.3v25.6c-0.8,0.2-1.9,0.3-3.2,0.3c-1.4,0-2.4-0.1-3.2-0.3c0,0-0.8-31.2,0.5-31.2h0.9c1.6,0,2.8,0.5,3.7,1.5
				C207,66.2,207.4,67.6,207.4,69.3z M199.6,58.1c-0.4-0.8-0.6-1.7-0.6-2.8c0-1.7,0.3-2.7,0.9-3s1.7-0.5,3.1-0.5
				c1.7,0,2.7,0.3,3.2,0.6c0.5,0.4,0.7,1.4,0.8,2.9c0,1.5-0.3,2.5-0.8,2.9c-0.5,0.4-1.5,0.6-3.2,0.7
				C201.4,58.9,200.3,58.6,199.6,58.1z"/>
			<path d="M226.1,89.6l7.4-25.7c0.8-0.2,1.7-0.3,2.8-0.3s2,0.2,2.9,0.5l0.2,0.3c-3.1,10.5-6.4,20.7-9.7,30.5
				c-1.2,0.2-2.6,0.3-4.3,0.3c-1.6,0-2.8-0.2-3.4-0.7c-0.6-0.5-1.2-1.4-1.7-2.9l-8.7-27.2c1.4-0.6,2.6-0.9,3.7-0.9
				c1.9,0,3.1,0.9,3.5,2.8l4.2,13.8c0.8,2.5,1.6,5.5,2.4,9.1C225.6,89.5,225.8,89.6,226.1,89.6z"/>
			<path d="M266.6,81.5h-18.4c0.1,2.9,0.7,5.1,1.9,6.7c1.1,1.5,3,2.3,5.6,2.3c1.3,0,2.6-0.2,4-0.6c1.4-0.4,2.9-1,4.5-1.8
				c1,1,1.7,2.3,2.1,4.1c-3.3,2.3-7.3,3.5-11.8,3.5c-2.4,0-4.4-0.4-6-1.3c-1.6-0.8-3-2-4-3.5c-1-1.5-1.8-3.2-2.2-5.2
				c-0.5-2-0.7-4.2-0.7-6.6c0-2.3,0.3-4.4,0.9-6.4c0.6-2,1.4-3.7,2.5-5.1c1.1-1.4,2.4-2.5,4-3.4c1.6-0.8,3.4-1.2,5.4-1.2
				c2,0,3.8,0.3,5.4,1c1.6,0.7,2.9,1.6,4,2.8c1.1,1.2,1.9,2.6,2.5,4.3c0.6,1.7,0.8,3.4,0.8,5.4c0,0.8,0,1.7-0.1,2.5
				C266.9,79.8,266.8,80.6,266.6,81.5z M254.6,67.9c-4,0-6.1,2.9-6.4,8.8h12.7v-0.8c0-2.4-0.5-4.3-1.5-5.8
				C258.3,68.7,256.7,67.9,254.6,67.9z"/>
			<path d="M299.6,92c-0.6,0.5-1.4,1-2.2,1.3c-0.9,0.4-1.8,0.7-2.8,1c-1,0.3-2,0.5-3,0.6c-1,0.1-2,0.2-2.9,0.2c-1,0-2.6,0-4.8-0.1
				c-2.3,0-5.2-0.1-8.9-0.2l-0.4-0.4V52.4l0.4-0.4c3.6-0.1,8.2-0.2,13.8-0.2c3.4,0,6.2,0.6,8.5,1.7c2.3,1.1,4.1,2.7,5.4,4.6
				c1.4,2,2.3,4.3,2.9,6.9c0.5,2.7,0.8,5.5,0.8,8.5c0,4.2-0.5,7.8-1.3,10.8C304,87.3,302.3,89.9,299.6,92z M288.7,57.2h-7.5v32.6
				h7.5c7.1,0,10.7-5.4,10.7-16.3c0-5.7-0.9-9.8-2.7-12.4C294.9,58.5,292.3,57.2,288.7,57.2z"/>
			<path d="M336.8,81.5h-18.4c0.1,2.9,0.7,5.1,1.9,6.7c1.1,1.5,3,2.3,5.6,2.3c1.3,0,2.6-0.2,4-0.6c1.4-0.4,2.9-1,4.5-1.8
				c1,1,1.7,2.3,2.1,4.1c-3.3,2.3-7.3,3.5-11.8,3.5c-2.4,0-4.4-0.4-6-1.3c-1.6-0.8-3-2-4-3.5c-1-1.5-1.8-3.2-2.2-5.2
				c-0.5-2-0.7-4.2-0.7-6.6c0-2.3,0.3-4.4,0.9-6.4c0.6-2,1.4-3.7,2.5-5.1c1.1-1.4,2.4-2.5,4-3.4c1.6-0.8,3.4-1.2,5.4-1.2
				c2,0,3.8,0.3,5.4,1c1.6,0.7,2.9,1.6,4,2.8c1.1,1.2,1.9,2.6,2.5,4.3c0.6,1.7,0.8,3.4,0.8,5.4c0,0.8,0,1.7-0.1,2.5
				C337.1,79.8,337,80.6,336.8,81.5z M324.7,67.9c-4,0-6.1,2.9-6.4,8.8H331v-0.8c0-2.4-0.5-4.3-1.5-5.8
				C328.5,68.7,326.9,67.9,324.7,67.9z"/>
			<path d="M360.7,75.9v-0.7c0-4.7-1.8-7.1-5.5-7.1c-2,0-3.5,1-4.6,2.9c-1.1,1.9-1.6,4.8-1.6,8.6c0,7.2,2.4,10.8,7.1,10.8
				c2.3,0,4.9-1,7.6-3.1c0.6,0.3,1.1,0.9,1.7,1.6c0.5,0.8,0.9,1.5,1.1,2.2c-3.1,3.1-6.8,4.6-11.2,4.6c-2.2,0-4.1-0.4-5.7-1.2
				c-1.6-0.8-2.9-2-4-3.4c-1.1-1.5-1.9-3.2-2.4-5.3c-0.5-2-0.8-4.3-0.8-6.8c0-2.6,0.4-4.8,1.1-6.8c0.7-2,1.7-3.6,2.9-5
				c1.2-1.3,2.6-2.4,4.1-3.1c1.6-0.7,3.2-1.1,5-1.1c1.8,0,3.4,0.3,4.8,0.8c1.4,0.5,2.6,1.3,3.6,2.1s1.7,1.9,2.3,3
				c0.5,1.2,0.8,2.3,0.8,3.5c0,2.4-1.1,3.6-3.3,3.6C362.3,76.1,361.4,76,360.7,75.9z"/>
			<path d="M393,83.2l2.1,5.2c1,2.6,2,4.2,3,4.9c-1.2,1.3-2.6,2-4.3,2c-1.1,0-1.9-0.3-2.5-0.8c-0.6-0.6-1.1-1.5-1.6-2.8l-2.5-6.1
				c-0.7-1.6-1.4-2.7-2.1-3.3c-0.7-0.6-1.6-0.8-2.6-0.8c-1,0-2.2,0-3.5,0.1v13.4c-0.8,0.2-1.8,0.3-3.1,0.3s-2.4-0.1-3.2-0.3V49.1
				l0.4-0.4h2.5c1.3,0,2.2,0.3,2.7,0.9c0.5,0.6,0.8,1.7,0.8,3.2v23.2l2.1-0.1c0.7,0,1.2-0.3,1.5-0.9l5.5-8.7c1-1.8,2.4-2.8,4-2.8
				s2.8,0,3.6,0.1l0.4,0.5l-6.8,10.9c-0.6,1-1.3,1.8-2.1,2.4C389.8,78.2,391.8,80.1,393,83.2z"/>
		</g>
		<g>
			<path d="M182.7,107h1.8l1,4.3h0.1l1-4.3h1.8l1.1,4.3h0.1l1-4.3h1.8l-1.7,6.4h-1.9l-1.1-4h-0.1l-1.1,4h-1.9L182.7,107z"/>
			<path d="M195.6,113.5h-1.8v-8.5h1.7v3.3h0.1c0.3-0.8,0.9-1.2,1.9-1.2c1.3,0,2.2,0.9,2.2,2.4v4.1H198v-3.8c0-0.8-0.4-1.3-1.1-1.3
				c-0.7,0-1.2,0.5-1.2,1.3V113.5z"/>
			<path d="M201.6,110.3c0-2,1.2-3.3,3.1-3.3c1.7,0,3,1.1,3,3.3v0.5h-4.4v0c0,1,0.6,1.5,1.5,1.5c0.6,0,1.1-0.3,1.2-0.7l1.6,0.1
				c-0.2,1.2-1.3,2-2.9,2C202.8,113.6,201.6,112.3,201.6,110.3z M206.1,109.6c0-0.8-0.5-1.3-1.3-1.3c-0.8,0-1.3,0.6-1.4,1.3H206.1z"
				/>
			<path d="M209.6,107h1.7v1.1h0.1c0.2-0.8,0.8-1.2,1.5-1.2c0.3,0,0.6,0.1,0.9,0.2l-0.5,1.5c-0.2-0.1-0.4-0.1-0.6-0.1
				c-0.7,0-1.3,0.5-1.3,1.3v3.6h-1.8V107z"/>
			<path d="M214.8,110.3c0-2,1.2-3.3,3.1-3.3c1.7,0,3,1.1,3,3.3v0.5h-4.4v0c0,1,0.6,1.5,1.5,1.5c0.6,0,1.1-0.3,1.2-0.7l1.6,0.1
				c-0.2,1.2-1.3,2-2.9,2C216,113.6,214.8,112.3,214.8,110.3z M219.2,109.6c0-0.8-0.5-1.3-1.3-1.3c-0.8,0-1.3,0.6-1.4,1.3H219.2z"/>
			<path d="M226.2,107h1.8v1.1h0.1c0.2-0.5,0.8-1.2,1.8-1.2c1.4,0,2.6,1.1,2.6,3.3c0,2.1-1.1,3.3-2.6,3.3c-1,0-1.6-0.6-1.8-1.1H228
				v3.4h-1.8V107z M229.3,112.1c0.9,0,1.3-0.8,1.3-1.9c0-1.1-0.5-1.9-1.3-1.9c-0.9,0-1.3,0.7-1.3,1.9S228.4,112.1,229.3,112.1z"/>
			<path d="M234.3,107h1.7v1.1h0.1c0.2-0.8,0.8-1.2,1.5-1.2c0.3,0,0.6,0.1,0.9,0.2l-0.5,1.5c-0.2-0.1-0.4-0.1-0.6-0.1
				c-0.7,0-1.3,0.5-1.3,1.3v3.6h-1.8V107z"/>
			<path d="M239.5,110.3c0-2,1.2-3.3,3.1-3.3c1.7,0,3,1.1,3,3.3v0.5h-4.4v0c0,1,0.6,1.5,1.5,1.5c0.6,0,1.1-0.3,1.2-0.7l1.6,0.1
				c-0.2,1.2-1.3,2-2.9,2C240.7,113.6,239.5,112.3,239.5,110.3z M244,109.6c0-0.8-0.5-1.3-1.3-1.3c-0.8,0-1.3,0.6-1.4,1.3H244z"/>
			<path d="M251.2,109c-0.1-0.4-0.5-0.8-1.1-0.8c-0.6,0-1,0.3-1,0.6c0,0.3,0.2,0.5,0.8,0.6l1.2,0.2c1.2,0.3,1.8,0.8,1.9,1.7
				c0,1.3-1.2,2.1-2.9,2.1c-1.7,0-2.7-0.8-2.9-2l1.7-0.1c0.1,0.5,0.5,0.8,1.2,0.8c0.6,0,1-0.3,1-0.7c0-0.3-0.3-0.5-0.8-0.6l-1.1-0.2
				c-1.3-0.3-1.9-0.9-1.9-1.8c0-1.2,1.1-2,2.7-2c1.6,0,2.6,0.7,2.7,1.9L251.2,109z"/>
			<path d="M254.5,110.3c0-2,1.2-3.3,3.1-3.3c1.7,0,3,1.1,3,3.3v0.5h-4.4v0c0,1,0.6,1.5,1.5,1.5c0.6,0,1.1-0.3,1.2-0.7l1.6,0.1
				c-0.2,1.2-1.3,2-2.9,2C255.8,113.6,254.5,112.3,254.5,110.3z M259,109.6c0-0.8-0.5-1.3-1.3-1.3c-0.8,0-1.3,0.6-1.4,1.3H259z"/>
			<path d="M264.3,113.5h-1.8V107h1.7v1.1h0.1c0.3-0.7,1-1.2,1.9-1.2c1.3,0,2.2,0.9,2.2,2.4v4.1h-1.8v-3.8c0-0.8-0.4-1.3-1.1-1.3
				c-0.7,0-1.2,0.5-1.2,1.3V113.5z"/>
			<path d="M274,108.4h-1.2v3.1c0,0.5,0.2,0.6,0.6,0.6c0.2,0,0.4,0,0.4-0.1l0.3,1.3c-0.2,0.1-0.5,0.2-1,0.2
				c-1.3,0.1-2.1-0.6-2.1-1.8v-3.3h-0.9V107h0.9v-1.5h1.8v1.5h1.2V108.4z"/>
			<path d="M275.5,111.7c0-1.4,1.1-1.9,2.4-2c1.1-0.1,1.6-0.2,1.6-0.6v0c0-0.5-0.3-0.8-1-0.8c-0.6,0-1,0.3-1.1,0.7l-1.6-0.1
				c0.2-1.2,1.3-1.9,2.8-1.9c1.4,0,2.7,0.6,2.7,2.2v4.3h-1.7v-0.9h0c-0.3,0.6-0.9,1-1.9,1C276.4,113.6,275.5,112.9,275.5,111.7z
				 M279.5,111.2v-0.7c-0.2,0.1-0.8,0.2-1.2,0.3c-0.6,0.1-1,0.3-1,0.8c0,0.5,0.4,0.7,0.9,0.7C278.9,112.4,279.5,111.8,279.5,111.2z"
				/>
			<path d="M286.7,108.4h-1.2v3.1c0,0.5,0.2,0.6,0.6,0.6c0.2,0,0.4,0,0.4-0.1l0.3,1.3c-0.2,0.1-0.5,0.2-1,0.2
				c-1.3,0.1-2.1-0.6-2.1-1.8v-3.3h-0.9V107h0.9v-1.5h1.8v1.5h1.2V108.4z"/>
			<path d="M288.5,105.3c0-0.5,0.4-0.9,1-0.9c0.5,0,1,0.4,1,0.9c0,0.5-0.4,0.9-1,0.9C289,106.2,288.5,105.8,288.5,105.3z M288.6,107
				h1.8v6.4h-1.8V107z"/>
			<path d="M292.2,110.3c0-2,1.2-3.3,3.2-3.3s3.2,1.3,3.2,3.3c0,2-1.2,3.3-3.2,3.3S292.2,112.3,292.2,110.3z M296.7,110.3
				c0-1.1-0.5-1.9-1.3-1.9c-0.9,0-1.4,0.8-1.4,1.9c0,1.1,0.5,1.9,1.4,1.9C296.3,112.2,296.7,111.4,296.7,110.3z"/>
			<path d="M302.2,113.5h-1.8V107h1.7v1.1h0.1c0.3-0.7,1-1.2,1.9-1.2c1.3,0,2.2,0.9,2.2,2.4v4.1h-1.8v-3.8c0-0.8-0.4-1.3-1.1-1.3
				c-0.7,0-1.2,0.5-1.2,1.3V113.5z"/>
			<path d="M312.1,109c-0.1-0.4-0.5-0.8-1.1-0.8c-0.6,0-1,0.3-1,0.6c0,0.3,0.2,0.5,0.8,0.6l1.2,0.2c1.2,0.3,1.8,0.8,1.9,1.7
				c0,1.3-1.2,2.1-2.9,2.1c-1.7,0-2.7-0.8-2.9-2l1.7-0.1c0.1,0.5,0.5,0.8,1.2,0.8c0.6,0,1-0.3,1-0.7c0-0.3-0.3-0.5-0.8-0.6l-1.1-0.2
				c-1.3-0.3-1.9-0.9-1.9-1.8c0-1.2,1.1-2,2.7-2c1.6,0,2.6,0.7,2.7,1.9L312.1,109z"/>
			<path d="M318.9,110.3c0-2,1.2-3.3,3.1-3.3c1.7,0,2.8,1,2.9,2.5h-1.7c-0.1-0.6-0.5-1.1-1.2-1.1c-0.8,0-1.4,0.7-1.4,1.9
				c0,1.2,0.5,1.9,1.4,1.9c0.6,0,1.1-0.4,1.2-1.1h1.7c-0.1,1.5-1.2,2.5-2.9,2.5C320.1,113.6,318.9,112.2,318.9,110.3z"/>
			<path d="M326.5,110.3c0-2,1.2-3.3,3.2-3.3s3.2,1.3,3.2,3.3c0,2-1.2,3.3-3.2,3.3S326.5,112.3,326.5,110.3z M331,110.3
				c0-1.1-0.5-1.9-1.3-1.9c-0.9,0-1.4,0.8-1.4,1.9c0,1.1,0.5,1.9,1.4,1.9C330.5,112.2,331,111.4,331,110.3z"/>
			<path d="M334.7,107h1.7v1.1h0.1c0.3-0.8,0.9-1.2,1.8-1.2c0.9,0,1.5,0.5,1.7,1.2h0.1c0.3-0.7,1-1.2,1.9-1.2c1.2,0,2,0.8,2,2.2v4.3
				h-1.8v-4c0-0.7-0.4-1.1-1-1.1c-0.6,0-1,0.5-1,1.1v3.9h-1.7v-4c0-0.6-0.4-1-1-1c-0.6,0-1,0.5-1,1.2v3.8h-1.8V107z"/>
			<path d="M345.8,110.3c0-2,1.2-3.3,3.1-3.3c1.7,0,3,1.1,3,3.3v0.5h-4.4v0c0,1,0.6,1.5,1.5,1.5c0.6,0,1.1-0.3,1.2-0.7l1.6,0.1
				c-0.2,1.2-1.3,2-2.9,2C347,113.6,345.8,112.3,345.8,110.3z M350.3,109.6c0-0.8-0.5-1.3-1.3-1.3c-0.8,0-1.3,0.6-1.4,1.3H350.3z"/>
			<path d="M356.9,111.7c0-1.4,1.1-1.9,2.4-2c1.1-0.1,1.6-0.2,1.6-0.6v0c0-0.5-0.3-0.8-1-0.8c-0.6,0-1,0.3-1.1,0.7l-1.6-0.1
				c0.2-1.2,1.3-1.9,2.8-1.9c1.4,0,2.7,0.6,2.7,2.2v4.3H361v-0.9h0c-0.3,0.6-0.9,1-1.9,1C357.8,113.6,356.9,112.9,356.9,111.7z
				 M360.9,111.2v-0.7c-0.2,0.1-0.8,0.2-1.2,0.3c-0.6,0.1-1,0.3-1,0.8c0,0.5,0.4,0.7,0.9,0.7C360.4,112.4,360.9,111.8,360.9,111.2z"
				/>
			<path d="M366.5,113.5h-1.8v-8.5h1.8V113.5z"/>
			<path d="M368.6,105.3c0-0.5,0.4-0.9,1-0.9c0.5,0,1,0.4,1,0.9c0,0.5-0.4,0.9-1,0.9C369,106.2,368.6,105.8,368.6,105.3z M368.7,107
				h1.8v6.4h-1.8V107z"/>
			<path d="M376.3,113.5h-2l-2.2-6.4h1.9l1.3,4.6h0.1l1.3-4.6h1.9L376.3,113.5z"/>
			<path d="M379.7,110.3c0-2,1.2-3.3,3.1-3.3c1.7,0,3,1.1,3,3.3v0.5h-4.4v0c0,1,0.6,1.5,1.5,1.5c0.6,0,1.1-0.3,1.2-0.7l1.6,0.1
				c-0.2,1.2-1.3,2-2.9,2C380.9,113.6,379.7,112.3,379.7,110.3z M384.1,109.6c0-0.8-0.5-1.3-1.3-1.3c-0.8,0-1.3,0.6-1.4,1.3H384.1z"
				/>
		</g>
	</g>
</g>
</svg>
