<?xml version="1.0" encoding="utf-8"?>
<!-- Generator: Adobe Illustrator 24.1.3, SVG Export Plug-In . SVG Version: 6.00 Build 0)  -->
<svg version="1.1" id="Layer_1" xmlns="http://www.w3.org/2000/svg" xmlns:xlink="http://www.w3.org/1999/xlink" x="0px" y="0px"
	 viewBox="0 0 1200 800" style="enable-background:new 0 0 1200 800;" xml:space="preserve">
<style type="text/css">
	.st0{fill:#F77F00;}
	.st1{fill:#BF0C0C;}
	.st2{fill:#D62828;}
</style>
<path class="st0" fill="#F77F00" d="M620.3,264.3c43,41.9,51.8,124.6,70,191.4c17.6,66.2,44.1,115.3,75,182.6c30.9,67.3,65.6,152.2,39.2,203.5
	C778,893,689.8,910.1,616.4,958.1c-73.9,48-132.9,125.8-192.5,126.9c-60.1,1.7-120.8-73.9-195.2-121.3
	C154.2,916.8,66,897.5,11.9,845.1c-53.5-52.4-72.8-138.4-66.2-220.6c6.6-82.2,39.2-160.5,94.3-210.7s132.9-72.3,200.8-99.3
	c67.8-27,125.8-59.6,193-75.6C501.2,222.9,577.8,222.9,620.3,264.3z"/>
<path class="st1" fill="#BF0C0C" d="M362,135.7c-15.2-101.2,13.4-216.3,89.8-260.8c76.6-43.7,202.1-17,301.8,9.8c98.7,26.1,173.2,51.1,278,51.3
	c104.8,0.2,240.8-23.8,331.9,19.6c92.1,44.1,139.6,157.4,110,256.7c-28.7,99.2-134.2,185.2-208.2,254.2
	c-74.8,69.1-117.2,121-168.4,162.8c-51.1,42.7-109.3,75.2-179.8,108s-152.8,65.1-201.4,31.1c-47.7-34.2-62.1-135.5-93.2-206.4
	c-31-70-78.9-110.4-132.7-173.7C436,324.1,377.2,236.8,362,135.7z"/>
<path class="st2" fill="#D62828" d="M808.6,357.3c49.7-71.7,73.7-194.1,118.7-204c45.6-9.7,111.6,92.8,154.6,166.3
	c43.7,73.7,63.8,118.1,139.7,146.6c75.3,28.2,206.3,40.4,233,82.3c26.8,41.9-49.8,113-70.3,213.9c-20.7,101.5,15,232.2-26.3,284.8
	c-40.5,52.2-158.1,25-248.1-7.9c-90.4-33.7-153-73-221.6-98c-68.6-25-142.9-34.4-213.7-70.9c-71-35.9-138.1-98.2-148.4-169.7
	c-10.5-70.8,36.5-150.7,97-201.3C684.3,449.6,759.1,428.4,808.6,357.3z"/>
<path class="st2" fill="#D62828" d="M-73.8,353.6c-64.2-64.7-168.5-98.9-203.9-152.8c-35.9-54.1-2.9-127.9,21.9-204.9
	C-231-81.3-214.4-161.7-147.8-163c66.7-1.9,183.2,75.7,263.6,96c81,20.5,125.8-16.4,185.2-29.8s133.6-2.6,208.4,30.6
	c74.9,32.8,151,88.2,178.3,154.8c26.8,66.4,5.1,143.5-61.1,179c-66.9,35.8-178.1,29-236.1,78.9s-62.7,156.1-112.7,209.8
	c-49.8,53.2-144.1,53.8-203.4,6.1S-9.2,418.9-73.8,353.6z"/>
</svg>
