<?xml version="1.0" encoding="utf-8"?>
<!-- Generator: Adobe Illustrator 24.0.3, SVG Export Plug-In . SVG Version: 6.00 Build 0)  -->
<svg version="1.1" id="Layer_1" xmlns="http://www.w3.org/2000/svg" xmlns:xlink="http://www.w3.org/1999/xlink" x="0px" y="0px"
	 viewBox="0 0 503 300" style="enable-background:new 0 0 503 300;" xml:space="preserve">
<rect x="-5" y="-3" width="511" height="308"/>
<g>
	
		<image style="overflow:visible;opacity:0.21;" width="438" height="638" xlink:href="18461A364E906CDE.png"  transform="matrix(1 0 0 1 -275 -169)">
	</image>
	<g>
		<path d="M-12,316c-29,0-59,0-88,0c-12-23-19-49-21-76c-2-37,6-74,25-107c18-34,27-73,15-110c-1-3-2-6-3-9c-4-10-9-21-16-30
			c29,0,59,0,88,0C0,8,7,33,9,60c2,36-5,71-23,103c-19,35-29,75-17,114c1,3,2,6,3,9C-24,297-19,307-12,316L-12,316z"/>
	</g>
</g>
<g>
	
		<image style="overflow:visible;opacity:0.21;" width="438" height="638" xlink:href="18461A364E906CE2.png"  transform="matrix(1 0 0 1 -211 -169)">
	</image>
	<g>
		<path d="M52,316c-29,0-59,0-88,0c-23-44-28-96-13-144c7-20,15-38,25-56c1-2,0-3,1-5c1-3,3-5,4-8c1-6,4-11,5-17c0-4,1-9,2-13
			c3-32-6-63-24-89c29,0,59,0,88,0C64,8,71,33,73,60c3,36-5,71-23,103c-19,35-29,75-17,114c1,3,2,6,3,9C40,297,45,307,52,316L52,316
			z"/>
	</g>
</g>
<g>
	
		<image style="overflow:visible;opacity:0.21;" width="438" height="638" xlink:href="18461A364E906CE5.png"  transform="matrix(1 0 0 1 -147 -169)">
	</image>
	<g>
		<path d="M116,316c-29,0-59,0-88,0C3,267-1,208,21,157c5-12,10-25,16-37c3-6,6-11,8-17s4-11,5-17c0-4,1-9,2-13c3-32-6-63-24-89
			c29,0,59,0,88,0c12,24,19,49,21,76c4,46-15,88-35,129C83,230,90,280,116,316L116,316z"/>
	</g>
</g>
<g>
	
		<image style="overflow:visible;opacity:0.21;" width="438" height="638" xlink:href="18461A364E906CE6.png"  transform="matrix(1 0 0 1 -83 -169)">
	</image>
	<g>
		<path d="M180,316c-29,0-59,0-88,0c-17-32-24-69-21-105c1-11,3-23,6-34c8-26,22-49,31-74c11-29,11-60,0-89C104,3,97-6,92-16
			c29,0,59,0,88,0c3,10,9,19,12,29c4,16,8,31,9,47c1,23-1,46-8,68c-8,23-19,43-29,65C147,233,155,281,180,316L180,316z"/>
	</g>
</g>
<g>
	
		<image style="overflow:visible;opacity:0.21;" width="439" height="638" xlink:href="18461A364E906CE4.png"  transform="matrix(1 0 0 1 -20 -169)">
	</image>
	<g>
		<path d="M244,316c-29,0-59,0-88,0c-14-25-20-54-22-82c-1-19,2-38,7-57c8-28,23-51,33-78c13-39,4-81-18-115c29,0,59,0,88,0
			c16,35,25,72,20,111c-4,36-22,66-36,98c-10,24-12,49-6,75C227,285,233,302,244,316L244,316z"/>
	</g>
</g>
<g>
	
		<image style="overflow:visible;opacity:0.21;" width="438" height="638" xlink:href="18461A364E906CE3.png"  transform="matrix(1 0 0 1 45 -169)">
	</image>
	<g>
		<path d="M308,316c-29,0-59,0-88,0c-19-35-25-77-20-117c5-37,25-66,38-100c14-39,4-81-18-115c29,0,59,0,88,0c6,13,11,27,15,41
			c6,26,8,50,4,76c-5,34-21,62-35,92C275,233,283,281,308,316L308,316z"/>
	</g>
</g>
<g>
	
		<image style="overflow:visible;opacity:0.21;" width="438" height="638" xlink:href="18461A364E906CED.png"  transform="matrix(1 0 0 1 108 -169)">
	</image>
	<g>
		<path d="M371,316c-29,0-59,0-88,0c-1-4-3-7-5-11c-9-23-14-46-16-71c-1-12,1-23,2-35c3-20,9-39,18-57c14-27,28-56,26-87
			c-1-26-10-50-25-71c29,0,59,0,88,0c19,36,25,76,20,117c-5,34-22,62-35,92C339,234,347,280,371,316L371,316z"/>
	</g>
</g>
<g>
	
		<image style="overflow:visible;opacity:0.21;" width="439" height="638" xlink:href="18461A364E906CEE.png"  transform="matrix(1 0 0 1 172 -169)">
	</image>
	<g>
		<path d="M435,316c-29,0-59,0-88,0c-1-4-3-7-5-11c-5-14-10-27-12-42c0-2-2-3-2-5c-2-18-3-35-1-53c3-22,9-43,19-63
			c11-21,21-42,25-65c4-33-5-66-24-93c29,0,59,0,88,0c12,22,18,45,21,70c2,18,1,34-2,52c-6,32-21,58-34,87C403,234,411,280,435,316
			L435,316z"/>
	</g>
</g>
<g>
	
		<image style="overflow:visible;opacity:0.21;" width="439" height="638" xlink:href="18461A364E906CEC.png"  transform="matrix(1 0 0 1 236 -169)">
	</image>
	<g>
		<path d="M499,316c-29,0-59,0-88,0c-11-24-19-49-21-76c-1-23,1-46,8-68c7-20,16-37,25-56c3-6,5-11,7-17c13-39,4-82-19-115
			c29,0,59,0,88,0c12,22,18,45,21,70c3,24,0,46-7,69c-7,26-21,49-30,74c-8,20-10,41-7,62S488,298,499,316L499,316z"/>
	</g>
</g>
<g>
	
		<image style="overflow:visible;opacity:0.21;" width="438" height="638" xlink:href="8221C9D95ADFBC61.png"  transform="matrix(1 0 0 1 300 -169)">
	</image>
	<g>
		<path d="M563,316c-29,0-59,0-88,0c-20-41-28-87-16-133c6-24,17-45,28-67c8-18,13-37,13-57c-1-27-9-53-25-75c29,0,59,0,88,0
			c12,22,18,45,21,70c4,45-9,87-31,126c-1,2,0,3-1,5c-2,4-5,8-6,12c-1,6-4,11-5,17C535,250,542,287,563,316L563,316z"/>
	</g>
</g>
<g>
	
		<image style="overflow:visible;opacity:0.21;" width="438" height="638" xlink:href="8221C9D95ADFBC67.png"  transform="matrix(1 0 0 1 364 -169)">
	</image>
	<g>
		<path d="M627,316c-29,0-59,0-88,0c-12-24-19-50-21-76c-3-38,6-74,25-107c18-34,27-73,15-110c-1-3-2-6-3-9c-4-10-9-21-16-30
			c29,0,59,0,88,0c17,32,24,69,21,105c-3,29-13,57-27,83c-4,8-7,17-10,25c-3,6-5,11-6,17C599,250,606,287,627,316L627,316z"/>
	</g>
</g>
<g>
	
		<image style="overflow:visible;opacity:0.21;" width="438" height="638" xlink:href="8221C9D95ADFBC60.png"  transform="matrix(1 0 0 1 428 -169)">
	</image>
	<g>
		<path d="M691,316c-29,0-59,0-88,0c-12-23-19-49-21-76c-2-37,6-74,25-107c18-34,27-73,15-110c-1-3-2-6-3-9c-4-10-9-21-16-30
			c29,0,59,0,88,0c12,24,19,49,21,76c2,36-5,71-23,103c-19,35-29,75-17,114c1,3,2,6,3,9C679,297,684,307,691,316L691,316z"/>
	</g>
</g>
</svg>
