<?xml version="1.0" standalone="no"?>
<!DOCTYPE svg PUBLIC "-//W3C//DTD SVG 20010904//EN"
 "http://www.w3.org/TR/2001/REC-SVG-20010904/DTD/svg10.dtd">
<svg version="1.0" xmlns="http://www.w3.org/2000/svg"
 width="1650.000000pt" height="1650.000000pt" viewBox="0 0 1650.000000 1650.000000"
 preserveAspectRatio="xMidYMid meet">
<metadata>
Created by potrace 1.11, written by Peter Selinger 2001-2013
</metadata>
<g transform="translate(0.000000,1650.000000) scale(0.100000,-0.100000)"
fill="#000000" stroke="none">
<path d="M8849 16336 c-2 -2 -31 -7 -64 -11 -33 -3 -80 -11 -105 -17 -25 -5
-56 -12 -70 -14 -14 -3 -38 -9 -55 -14 -139 -43 -201 -64 -210 -70 -5 -3 -32
-15 -60 -25 -54 -19 -238 -109 -295 -144 -19 -11 -42 -24 -50 -28 -45 -21
-365 -234 -380 -253 -3 -3 -23 -19 -45 -36 -54 -40 -64 -48 -190 -155 -154
-131 -150 -128 -141 -104 4 11 9 27 11 35 18 78 91 236 157 340 19 30 38 66
41 79 9 35 -21 99 -54 116 -66 34 -334 -14 -518 -93 -316 -135 -616 -417 -847
-798 -71 -118 -234 -441 -234 -465 0 -8 -4 -19 -9 -25 -30 -30 -225 -614 -245
-731 -1 -6 -47 -46 -101 -89 -376 -293 -669 -589 -939 -949 -70 -93 -235 -335
-272 -401 -6 -10 -37 -64 -68 -118 -76 -132 -174 -328 -231 -462 -25 -60 -50
-118 -55 -129 -38 -79 -166 -476 -195 -603 -2 -9 -11 -44 -19 -78 -8 -34 -17
-72 -20 -85 -26 -125 -38 -189 -42 -219 -2 -19 -6 -46 -9 -60 -12 -63 -18
-108 -31 -230 -18 -174 -27 -346 -27 -512 l0 -148 -347 0 c-324 0 -351 -1
-392 -20 -57 -26 -82 -49 -110 -101 l-23 -44 0 -868 c0 -686 -3 -866 -12 -862
-84 32 -267 76 -368 90 -123 16 -337 22 -415 11 -19 -3 -57 -8 -85 -11 -27 -4
-66 -9 -85 -12 -53 -8 -255 -61 -292 -77 -18 -8 -62 -26 -98 -41 -397 -165
-739 -497 -943 -913 -62 -125 -129 -301 -153 -397 -31 -126 -54 -229 -59 -265
-4 -25 -9 -58 -11 -75 -17 -113 -22 -205 -19 -385 2 -113 6 -225 9 -250 13
-97 17 -127 26 -175 6 -27 11 -59 13 -70 4 -19 7 -32 29 -125 42 -178 143
-427 243 -605 68 -120 161 -253 245 -350 167 -193 378 -363 600 -483 72 -39
261 -122 284 -126 6 -1 16 -4 21 -8 10 -5 172 -54 211 -63 158 -35 310 -59
449 -70 84 -7 362 -8 372 -2 5 3 15 2 23 -3 12 -8 15 -64 16 -342 1 -360 0
-354 58 -418 14 -16 40 -37 58 -47 31 -17 103 -18 1281 -21 686 -1 1247 -6
1248 -10 0 -4 2 -16 4 -27 2 -11 7 -49 11 -85 3 -36 8 -67 9 -70 2 -3 6 -26
10 -50 12 -88 76 -322 121 -447 39 -111 156 -368 173 -383 3 -3 17 -25 30 -50
107 -199 360 -501 561 -671 418 -354 841 -553 1345 -633 34 -5 81 -12 170 -23
33 -4 170 -8 305 -7 214 0 298 4 400 19 14 2 45 7 70 10 25 3 79 12 120 20 41
9 84 17 95 19 123 24 372 102 505 158 246 103 520 260 665 379 333 275 537
524 701 856 113 229 203 519 230 738 3 22 7 49 9 60 2 11 7 49 10 85 3 36 8
75 11 87 l4 23 818 0 c550 0 830 4 856 11 54 15 123 82 137 133 6 22 13 44 15
47 2 4 35 -6 72 -21 376 -153 839 -242 1267 -242 108 -1 327 10 365 17 8 2 44
6 80 10 36 4 74 9 85 11 11 3 36 7 55 10 181 29 461 111 625 183 132 59 317
157 323 173 2 4 8 8 14 8 22 0 226 159 320 249 340 326 530 725 585 1232 15
139 6 599 -12 629 -2 3 -6 25 -10 50 -4 25 -8 47 -10 50 -2 3 -6 24 -9 46 -10
62 -59 228 -99 329 -108 278 -269 540 -495 803 -71 84 -339 353 -415 417 -26
22 -64 55 -84 74 -70 64 -367 297 -613 481 -332 249 -481 368 -600 477 l-35
32 -1 853 c0 469 -4 875 -8 901 -6 39 -17 58 -54 97 -30 31 -61 52 -87 59 -25
7 -164 11 -377 11 l-338 0 0 158 c-1 86 -3 186 -5 222 -10 157 -16 242 -20
258 -2 10 -6 49 -9 87 -4 39 -9 77 -11 85 -2 8 -6 35 -9 60 -3 25 -8 55 -10
66 -2 12 -7 37 -10 55 -5 30 -13 72 -30 159 -18 86 -90 369 -103 400 -3 8 -7
20 -8 25 -4 14 -55 167 -62 185 -3 8 -7 20 -8 25 -2 6 -17 46 -34 90 -219 554
-505 1026 -885 1460 -84 96 -392 404 -460 460 -27 22 -64 54 -84 70 -102 88
-276 216 -428 317 l-170 113 -45 80 c-147 265 -351 524 -509 648 -95 74 -130
109 -130 128 0 58 187 168 405 238 55 18 110 39 122 47 30 19 54 68 49 98 -11
59 -32 78 -166 148 -345 181 -665 232 -1000 158 -74 -17 -136 -37 -388 -127
-55 -20 -67 -10 -83 67 -37 186 23 383 150 492 50 43 73 98 59 139 -13 38 -49
68 -89 75 -39 6 -355 15 -360 10z m-349 -4060 c144 -12 203 -22 329 -52 627
-149 1159 -568 1445 -1140 74 -148 151 -353 170 -454 2 -14 9 -45 15 -70 16
-70 21 -101 27 -155 3 -27 9 -72 13 -100 7 -52 5 -365 -3 -400 -2 -11 -5 -30
-5 -41 -1 -22 -3 -22 -216 -22 l-214 1 7 56 c9 73 9 337 -1 424 -24 221 -123
506 -242 696 -262 417 -669 703 -1141 801 -213 45 -477 46 -684 4 -408 -82
-730 -275 -1025 -614 -129 -148 -306 -503 -339 -680 -2 -14 -9 -45 -14 -70
-11 -50 -20 -99 -29 -175 -9 -78 -6 -335 6 -385 6 -30 7 -47 0 -51 -19 -11
-420 -7 -424 5 -8 22 -15 153 -15 256 1 198 15 311 66 540 13 62 87 269 126
353 69 150 166 315 238 404 14 17 39 48 55 70 56 72 138 158 226 238 84 77
107 96 199 161 328 235 704 371 1105 400 50 4 91 7 92 8 4 3 174 -3 233 -8z
m-47 -1311 c61 -7 163 -39 237 -73 l58 -27 -58 -18 c-223 -65 -294 -342 -129
-506 165 -165 433 -96 506 129 9 28 20 47 24 43 17 -17 70 -166 84 -235 28
-137 24 -253 -11 -379 l-16 -57 -821 2 -821 1 -19 70 c-18 69 -27 276 -14 335
43 198 120 346 246 470 195 194 452 280 734 245z m5158 -1564 c1 -3 2 -1007 4
-2231 1 -1224 4 -2232 6 -2240 6 -20 -46 -18 -162 5 -129 25 -338 121 -486
221 -54 37 -100 70 -103 73 -3 3 -32 28 -65 55 -195 159 -397 399 -524 619
-98 172 -195 420 -217 557 -2 14 -6 34 -9 46 -6 29 -14 77 -24 159 -9 67 -7
433 3 485 2 14 9 55 15 92 6 37 14 74 18 84 5 13 2 15 -18 9 -13 -4 -49 -21
-79 -38 -332 -179 -601 -495 -755 -887 -20 -52 -41 -103 -46 -112 -5 -10 -13
-34 -18 -55 -6 -21 -24 -90 -40 -153 -27 -100 -45 -191 -65 -320 -15 -95 -21
-213 -21 -400 0 -177 10 -383 20 -400 1 -3 5 -28 9 -55 33 -282 161 -657 316
-930 160 -283 456 -593 754 -790 31 -21 56 -41 56 -44 0 -3 -1043 -5 -2319 -4
-1490 1 -2334 -2 -2362 -8 -24 -6 -51 -17 -60 -25 -15 -14 -19 -8 -48 60 -48
116 -65 211 -65 376 -2 296 57 504 207 736 243 376 717 684 1286 835 64 17
117 32 119 34 2 1 -41 30 -95 63 -342 211 -680 341 -1033 396 -152 24 -468 25
-586 2 -12 -2 -37 -7 -55 -10 -68 -11 -95 -17 -149 -32 -30 -8 -62 -16 -70
-18 -39 -10 -169 -59 -254 -96 -223 -98 -434 -247 -637 -449 -271 -271 -421
-502 -605 -927 -48 -112 -140 -430 -159 -554 -4 -25 -9 -52 -10 -60 -3 -19
-16 -97 -20 -130 -2 -14 -7 -61 -11 -105 -3 -44 -8 -83 -10 -86 -6 -11 -2204
-6 -2205 5 0 6 -1 640 -2 1409 -2 1391 -2 1397 18 1398 44 3 195 -11 235 -21
19 -5 55 -12 79 -15 58 -8 271 -71 439 -130 185 -64 308 -83 502 -80 85 2 169
5 185 8 17 3 46 8 65 12 217 37 507 168 670 302 171 139 264 241 363 393 121
187 212 426 232 610 4 30 9 69 11 85 8 45 7 231 0 305 -6 56 -16 121 -31 205
-9 50 -59 197 -91 265 -36 76 -106 194 -131 218 -7 7 -13 17 -13 21 0 14 -163
174 -225 222 -190 145 -439 256 -691 307 -110 23 -184 33 -184 27 0 -2 5 -16
11 -32 6 -15 12 -35 14 -43 2 -8 10 -35 18 -60 26 -77 56 -201 77 -315 24
-137 22 -375 -5 -470 -71 -254 -276 -400 -555 -397 -264 4 -556 98 -905 291
-109 61 -116 68 -103 99 9 20 13 245 14 827 1 440 3 803 3 806 1 9 10571 9
10572 0z"/>
</g>
</svg>
